<svg xmlns="http://www.w3.org/2000/svg" xmlns:xlink="http://www.w3.org/1999/xlink" width="412" height="240" xmlns:v="https://vecta.io/nano"><style><![CDATA[.B{stroke:#000}.C{stroke-miterlimit:10}.D{fill:#000}.E{font-family:Arial}.F{text-decoration:normal}.G{dominant-baseline:central}.H{fill:#ffffe0}.I{fill:none}.J{font-size:15px}.K{fill:#fff}.L{font-size:20px}.M{stroke:#ffffe0}.N{stroke:#d3d3d3}]]></style><g class="K"><use xlink:href="#B"/><use xlink:href="#B"/></g><text x="194.882" y="17.5" class="D E F G L">Diagramm</text><use xlink:href="#B" class="K"/><text x="194.882" y="17.5" class="D E F G L">Diagramm</text><path paint-order="fill stroke markers" d="M90 190h302" class="B C I"/><use xlink:href="#B" class="K"/><text x="194.882" y="17.5" class="D E F G L">Diagramm</text><g class="B C I"><path paint-order="fill stroke markers" d="M90 190h302"/><path paint-order="fill stroke markers" d="M241 190v5"/></g><use xlink:href="#B" class="K"/><text x="194.882" y="17.5" class="D E F G L">Diagramm</text><g class="B C I"><path paint-order="fill stroke markers" d="M90 190h302"/><path paint-order="fill stroke markers" d="M241 190v5m151-5v5"/></g><use xlink:href="#B" class="K"/><text x="194.882" y="17.5" class="D E F G L">Diagramm</text><g class="B C I"><path paint-order="fill stroke markers" d="M90 190h302"/><path paint-order="fill stroke markers" d="M241 190v5m151-5v5"/></g><use xlink:href="#C" paint-order="fill stroke markers" class="B C H"/><use xlink:href="#B" class="K"/><text x="194.882" y="17.5" class="D E F G L">Diagramm</text><g class="B C I"><path paint-order="fill stroke markers" d="M90 190h302"/><path paint-order="fill stroke markers" d="M241 190v5m151-5v5"/></g><use xlink:href="#C" paint-order="fill stroke markers" class="B C H"/><text x="296.9" y="212.5" class="D E F G J">Bed 2</text><use xlink:href="#B" class="K"/><text x="194.882" y="17.5" class="D E F G L">Diagramm</text><g class="B C I"><path paint-order="fill stroke markers" d="M90 190h302"/><path paint-order="fill stroke markers" d="M241 190v5m151-5v5"/></g><use xlink:href="#C" paint-order="fill stroke markers" class="B C H"/><text x="296.9" y="212.5" class="D E F G J">Bed 2</text><use xlink:href="#D" paint-order="fill stroke markers" class="C H M"/><use xlink:href="#B" class="K"/><text x="194.882" y="17.5" class="D E F G L">Diagramm</text><g class="B C I"><path paint-order="fill stroke markers" d="M90 190h302"/><path paint-order="fill stroke markers" d="M241 190v5m151-5v5"/></g><use xlink:href="#C" paint-order="fill stroke markers" class="B C H"/><text x="296.9" y="212.5" class="D E F G J">Bed 2</text><g class="C"><use xlink:href="#D" paint-order="fill stroke markers" class="H M"/><path paint-order="fill stroke markers" d="M90 190V40" class="B I"/></g><use xlink:href="#B" class="K"/><text x="194.882" y="17.5" class="D E F G L">Diagramm</text><g class="B C I"><path paint-order="fill stroke markers" d="M90 190h302"/><path paint-order="fill stroke markers" d="M241 190v5m151-5v5"/></g><use xlink:href="#C" paint-order="fill stroke markers" class="B C H"/><text x="296.9" y="212.5" class="D E F G J">Bed 2</text><g class="C"><use xlink:href="#D" paint-order="fill stroke markers" class="H M"/><g class="I"><path paint-order="fill stroke markers" d="M90 190V40" class="B"/><path paint-order="fill stroke markers" d="M90 152.5h302" class="N"/></g></g><use xlink:href="#B" class="K"/><text x="194.882" y="17.5" class="D E F G L">Diagramm</text><g class="B C I"><path paint-order="fill stroke markers" d="M90 190h302"/><path paint-order="fill stroke markers" d="M241 190v5m151-5v5"/></g><use xlink:href="#C" paint-order="fill stroke markers" class="B C H"/><text x="296.9" y="212.5" class="D E F G J">Bed 2</text><g class="C"><use xlink:href="#D" paint-order="fill stroke markers" class="H M"/><g class="I"><path paint-order="fill stroke markers" d="M90 190V40" class="B"/><path paint-order="fill stroke markers" d="M90 152.5h302M90 115h302" class="N"/></g></g><use xlink:href="#B" class="K"/><text x="194.882" y="17.5" class="D E F G L">Diagramm</text><g class="B C I"><path paint-order="fill stroke markers" d="M90 190h302"/><path paint-order="fill stroke markers" d="M241 190v5m151-5v5"/></g><use xlink:href="#C" paint-order="fill stroke markers" class="B C H"/><text x="296.9" y="212.5" class="D E F G J">Bed 2</text><g class="C"><use xlink:href="#D" paint-order="fill stroke markers" class="H M"/><g class="I"><path paint-order="fill stroke markers" d="M90 190V40" class="B"/><path paint-order="fill stroke markers" d="M90 152.5h302M90 115h302M90 77.5h302" class="N"/></g></g><use xlink:href="#B" class="K"/><text x="194.882" y="17.5" class="D E F G L">Diagramm</text><g class="B C I"><path paint-order="fill stroke markers" d="M90 190h302"/><path paint-order="fill stroke markers" d="M241 190v5m151-5v5"/></g><use xlink:href="#C" paint-order="fill stroke markers" class="B C H"/><text x="296.9" y="212.5" class="D E F G J">Bed 2</text><g class="C"><use xlink:href="#D" paint-order="fill stroke markers" class="H M"/><g class="I"><path paint-order="fill stroke markers" d="M90 190V40" class="B"/><path paint-order="fill stroke markers" d="M90 152.5h302M90 115h302M90 77.5h302M90 40h302" class="N"/></g></g><use xlink:href="#B" class="K"/><text x="194.882" y="17.5" class="D E F G L">Diagramm</text><g class="B C I"><path paint-order="fill stroke markers" d="M90 190h302"/><path paint-order="fill stroke markers" d="M241 190v5m151-5v5"/></g><use xlink:href="#C" paint-order="fill stroke markers" class="B C H"/><text x="296.9" y="212.5" class="D E F G J">Bed 2</text><g class="C"><use xlink:href="#D" paint-order="fill stroke markers" class="H M"/><g class="I"><path paint-order="fill stroke markers" d="M90 190V40" class="B"/><path paint-order="fill stroke markers" d="M90 152.5h302M90 115h302M90 77.5h302M90 40h302" class="N"/><path paint-order="fill stroke markers" d="M85 190h10" class="B"/></g></g><use xlink:href="#B" class="K"/><text x="194.882" y="17.5" class="D E F G L">Diagramm</text><g class="B C I"><path paint-order="fill stroke markers" d="M90 190h302"/><path paint-order="fill stroke markers" d="M241 190v5m151-5v5"/></g><use xlink:href="#C" paint-order="fill stroke markers" class="B C H"/><text x="296.9" y="212.5" class="D E F G J">Bed 2</text><g class="C"><use xlink:href="#D" paint-order="fill stroke markers" class="H M"/><g class="I"><path paint-order="fill stroke markers" d="M90 190V40" class="B"/><path paint-order="fill stroke markers" d="M90 152.5h302M90 115h302M90 77.5h302M90 40h302" class="N"/><path paint-order="fill stroke markers" d="M85 190h10m-10-37.5h10" class="B"/></g></g><use xlink:href="#B" class="K"/><text x="194.882" y="17.5" class="D E F G L">Diagramm</text><g class="B C I"><path paint-order="fill stroke markers" d="M90 190h302"/><path paint-order="fill stroke markers" d="M241 190v5m151-5v5"/></g><use xlink:href="#C" paint-order="fill stroke markers" class="B C H"/><text x="296.9" y="212.5" class="D E F G J">Bed 2</text><g class="C"><use xlink:href="#D" paint-order="fill stroke markers" class="H M"/><g class="I"><path paint-order="fill stroke markers" d="M90 190V40" class="B"/><path paint-order="fill stroke markers" d="M90 152.5h302M90 115h302M90 77.5h302M90 40h302" class="N"/><path paint-order="fill stroke markers" d="M85 190h10m-10-37.5h10M85 115h10" class="B"/></g></g><use xlink:href="#B" class="K"/><text x="194.882" y="17.5" class="D E F G L">Diagramm</text><g class="B C I"><path paint-order="fill stroke markers" d="M90 190h302"/><path paint-order="fill stroke markers" d="M241 190v5m151-5v5"/></g><use xlink:href="#C" paint-order="fill stroke markers" class="B C H"/><text x="296.9" y="212.5" class="D E F G J">Bed 2</text><g class="C"><use xlink:href="#D" paint-order="fill stroke markers" class="H M"/><g class="I"><path paint-order="fill stroke markers" d="M90 190V40" class="B"/><path paint-order="fill stroke markers" d="M90 152.5h302M90 115h302M90 77.5h302M90 40h302" class="N"/><path paint-order="fill stroke markers" d="M85 190h10m-10-37.5h10M85 115h10M85 77.5h10" class="B"/></g></g><use xlink:href="#B" class="K"/><text x="194.882" y="17.5" class="D E F G L">Diagramm</text><g class="B C I"><path paint-order="fill stroke markers" d="M90 190h302"/><path paint-order="fill stroke markers" d="M241 190v5m151-5v5"/></g><use xlink:href="#C" paint-order="fill stroke markers" class="B C H"/><text x="296.9" y="212.5" class="D E F G J">Bed 2</text><g class="C"><use xlink:href="#D" paint-order="fill stroke markers" class="H M"/><g class="I"><path paint-order="fill stroke markers" d="M90 190V40" class="B"/><path paint-order="fill stroke markers" d="M90 152.5h302M90 115h302M90 77.5h302M90 40h302" class="N"/><path paint-order="fill stroke markers" d="M85 190h10m-10-37.5h10M85 115h10M85 77.5h10M85 40h10" class="B"/></g></g><use xlink:href="#B" class="K"/><text x="194.882" y="17.5" class="D E F G L">Diagramm</text><g class="B C I"><path paint-order="fill stroke markers" d="M90 190h302"/><path paint-order="fill stroke markers" d="M241 190v5m151-5v5"/></g><use xlink:href="#C" paint-order="fill stroke markers" class="B C H"/><text x="296.9" y="212.5" class="D E F G J">Bed 2</text><g class="C"><use xlink:href="#D" paint-order="fill stroke markers" class="H M"/><g class="I"><path paint-order="fill stroke markers" d="M90 190V40" class="B"/><path paint-order="fill stroke markers" d="M90 152.5h302M90 115h302M90 77.5h302M90 40h302" class="N"/><path paint-order="fill stroke markers" d="M85 190h10m-10-37.5h10M85 115h10M85 77.5h10M85 40h10" class="B"/></g><use xlink:href="#E" paint-order="fill stroke markers" class="B H"/></g><use xlink:href="#B" class="K"/><text x="194.882" y="17.5" class="D E F G L">Diagramm</text><g class="B C I"><path paint-order="fill stroke markers" d="M90 190h302"/><path paint-order="fill stroke markers" d="M241 190v5m151-5v5"/></g><use xlink:href="#C" paint-order="fill stroke markers" class="B C H"/><text x="296.9" y="212.5" class="D E F G J">Bed 2</text><g class="C"><use xlink:href="#D" paint-order="fill stroke markers" class="H M"/><g class="I"><path paint-order="fill stroke markers" d="M90 190V40" class="B"/><path paint-order="fill stroke markers" d="M90 152.5h302M90 115h302M90 77.5h302M90 40h302" class="N"/><path paint-order="fill stroke markers" d="M85 190h10m-10-37.5h10M85 115h10M85 77.5h10M85 40h10" class="B"/></g><use xlink:href="#E" paint-order="fill stroke markers" class="B H"/></g><text x="44.978" y="152.5" class="D E F G J">50%</text><use xlink:href="#B" class="K"/><text x="194.882" y="17.5" class="D E F G L">Diagramm</text><g class="B C I"><path paint-order="fill stroke markers" d="M90 190h302"/><path paint-order="fill stroke markers" d="M241 190v5m151-5v5"/></g><use xlink:href="#C" paint-order="fill stroke markers" class="B C H"/><text x="296.9" y="212.5" class="D E F G J">Bed 2</text><g class="C"><use xlink:href="#D" paint-order="fill stroke markers" class="H M"/><g class="I"><path paint-order="fill stroke markers" d="M90 190V40" class="B"/><path paint-order="fill stroke markers" d="M90 152.5h302M90 115h302M90 77.5h302M90 40h302" class="N"/><path paint-order="fill stroke markers" d="M85 190h10m-10-37.5h10M85 115h10M85 77.5h10M85 40h10" class="B"/></g><use xlink:href="#E" paint-order="fill stroke markers" class="B H"/></g><text x="44.978" y="152.5" class="D E F G J">50%</text><use xlink:href="#E" y="-75" paint-order="fill stroke markers" class="B C H"/><use xlink:href="#B" class="K"/><text x="194.882" y="17.5" class="D E F G L">Diagramm</text><g class="B C I"><path paint-order="fill stroke markers" d="M90 190h302"/><path paint-order="fill stroke markers" d="M241 190v5m151-5v5"/></g><use xlink:href="#C" paint-order="fill stroke markers" class="B C H"/><text x="296.9" y="212.5" class="D E F G J">Bed 2</text><g class="C"><use xlink:href="#D" paint-order="fill stroke markers" class="H M"/><g class="I"><path paint-order="fill stroke markers" d="M90 190V40" class="B"/><path paint-order="fill stroke markers" d="M90 152.5h302M90 115h302M90 77.5h302M90 40h302" class="N"/><path paint-order="fill stroke markers" d="M85 190h10m-10-37.5h10M85 115h10M85 77.5h10M85 40h10" class="B"/></g><use xlink:href="#E" paint-order="fill stroke markers" class="B H"/></g><text x="44.978" y="152.5" class="D E F G J">50%</text><use xlink:href="#E" y="-75" paint-order="fill stroke markers" class="B C H"/><text x="44.978" y="77.5" class="D E F G J">75%</text><use xlink:href="#B" class="K"/><text x="194.882" y="17.5" class="D E F G L">Diagramm</text><g class="B C I"><path paint-order="fill stroke markers" d="M90 190h302"/><path paint-order="fill stroke markers" d="M241 190v5m151-5v5"/></g><use xlink:href="#C" paint-order="fill stroke markers" class="B C H"/><text x="296.9" y="212.5" class="D E F G J">Bed 2</text><g class="C"><use xlink:href="#D" paint-order="fill stroke markers" class="H M"/><g class="I"><path paint-order="fill stroke markers" d="M90 190V40" class="B"/><path paint-order="fill stroke markers" d="M90 152.5h302M90 115h302M90 77.5h302M90 40h302" class="N"/><path paint-order="fill stroke markers" d="M85 190h10m-10-37.5h10M85 115h10M85 77.5h10M85 40h10" class="B"/></g><use xlink:href="#E" paint-order="fill stroke markers" class="B H"/></g><text x="44.978" y="152.5" class="D E F G J">50%</text><use xlink:href="#E" y="-75" paint-order="fill stroke markers" class="B C H"/><text x="44.978" y="77.5" class="D E F G J">75%</text><use xlink:href="#E" y="-150" paint-order="fill stroke markers" class="B C H"/><use xlink:href="#B" class="K"/><text x="194.882" y="17.5" class="D E F G L">Diagramm</text><g class="B C I"><path paint-order="fill stroke markers" d="M90 190h302"/><path paint-order="fill stroke markers" d="M241 190v5m151-5v5"/></g><use xlink:href="#C" paint-order="fill stroke markers" class="B C H"/><text x="296.9" y="212.5" class="D E F G J">Bed 2</text><g class="C"><use xlink:href="#D" paint-order="fill stroke markers" class="H M"/><g class="I"><path paint-order="fill stroke markers" d="M90 190V40" class="B"/><path paint-order="fill stroke markers" d="M90 152.5h302M90 115h302M90 77.5h302M90 40h302" class="N"/><path paint-order="fill stroke markers" d="M85 190h10m-10-37.5h10M85 115h10M85 77.5h10M85 40h10" class="B"/></g><use xlink:href="#E" paint-order="fill stroke markers" class="B H"/></g><text x="44.978" y="152.5" class="D E F G J">50%</text><use xlink:href="#E" y="-75" paint-order="fill stroke markers" class="B C H"/><text x="44.978" y="77.5" class="D E F G J">75%</text><use xlink:href="#E" y="-150" paint-order="fill stroke markers" class="B C H"/><text x="7.068" y="7.5" transform="matrix(0 -1 1 0 10 145)" class="D E F G J">Anzahl</text><use xlink:href="#B" class="K"/><text x="194.882" y="17.5" class="D E F G L">Diagramm</text><g class="B C I"><path paint-order="fill stroke markers" d="M90 190h302"/><path paint-order="fill stroke markers" d="M241 190v5m151-5v5"/></g><use xlink:href="#C" paint-order="fill stroke markers" class="B C H"/><text x="296.9" y="212.5" class="D E F G J">Bed 2</text><g class="C"><use xlink:href="#D" paint-order="fill stroke markers" class="H M"/><g class="I"><path paint-order="fill stroke markers" d="M90 190V40" class="B"/><path paint-order="fill stroke markers" d="M90 152.5h302M90 115h302M90 77.5h302M90 40h302" class="N"/><path paint-order="fill stroke markers" d="M85 190h10m-10-37.5h10M85 115h10M85 77.5h10M85 40h10" class="B"/></g><use xlink:href="#E" paint-order="fill stroke markers" class="B H"/></g><text x="44.978" y="152.5" class="D E F G J">50%</text><use xlink:href="#E" y="-75" paint-order="fill stroke markers" class="B C H"/><text x="44.978" y="77.5" class="D E F G J">75%</text><use xlink:href="#E" y="-150" paint-order="fill stroke markers" class="B C H"/><text x="7.068" y="7.5" transform="matrix(0 -1 1 0 10 145)" class="D E F G J">Anzahl</text><path paint-order="fill stroke markers" d="M127.75 92.5h75.5V190h-75.5V92.5z" class="B C"/><use xlink:href="#B" class="K"/><text x="194.882" y="17.5" class="D E F G L">Diagramm</text><g class="B C I"><path paint-order="fill stroke markers" d="M90 190h302"/><path paint-order="fill stroke markers" d="M241 190v5m151-5v5"/></g><use xlink:href="#C" paint-order="fill stroke markers" class="B C H"/><text x="296.9" y="212.5" class="D E F G J">Bed 2</text><g class="C"><use xlink:href="#D" paint-order="fill stroke markers" class="H M"/><g class="I"><path paint-order="fill stroke markers" d="M90 190V40" class="B"/><path paint-order="fill stroke markers" d="M90 152.5h302M90 115h302M90 77.5h302M90 40h302" class="N"/><path paint-order="fill stroke markers" d="M85 190h10m-10-37.5h10M85 115h10M85 77.5h10M85 40h10" class="B"/></g><use xlink:href="#E" paint-order="fill stroke markers" class="B H"/></g><text x="44.978" y="152.5" class="D E F G J">50%</text><use xlink:href="#E" y="-75" paint-order="fill stroke markers" class="B C H"/><text x="44.978" y="77.5" class="D E F G J">75%</text><use xlink:href="#E" y="-150" paint-order="fill stroke markers" class="B C H"/><text x="7.068" y="7.5" transform="matrix(0 -1 1 0 10 145)" class="D E F G J">Anzahl</text><g class="C"><path paint-order="fill stroke markers" d="M127.75 92.5h75.5V190h-75.5V92.5z" class="B"/><path fill="#00f" stroke="#00f" paint-order="fill stroke markers" d="M278.75 139h75.5v51h-75.5v-51z"/></g><use xlink:href="#B" class="K"/><text x="194.882" y="17.5" class="D E F G L">Diagramm</text><g class="B C I"><path paint-order="fill stroke markers" d="M90 190h302"/><path paint-order="fill stroke markers" d="M241 190v5m151-5v5"/></g><use xlink:href="#C" paint-order="fill stroke markers" class="B C H"/><text x="296.9" y="212.5" class="D E F G J">Bed 2</text><g class="C"><use xlink:href="#D" paint-order="fill stroke markers" class="H M"/><g class="I"><path paint-order="fill stroke markers" d="M90 190V40" class="B"/><path paint-order="fill stroke markers" d="M90 152.5h302M90 115h302M90 77.5h302M90 40h302" class="N"/><path paint-order="fill stroke markers" d="M85 190h10m-10-37.5h10M85 115h10M85 77.5h10M85 40h10" class="B"/></g><use xlink:href="#E" paint-order="fill stroke markers" class="B H"/></g><text x="44.978" y="152.5" class="D E F G J">50%</text><use xlink:href="#E" y="-75" paint-order="fill stroke markers" class="B C H"/><text x="44.978" y="77.5" class="D E F G J">75%</text><use xlink:href="#E" y="-150" paint-order="fill stroke markers" class="B C H"/><text x="7.068" y="7.5" transform="matrix(0 -1 1 0 10 145)" class="D E F G J">Anzahl</text><g class="C"><path paint-order="fill stroke markers" d="M127.75 92.5h75.5V190h-75.5V92.5z" class="B"/><path fill="#00f" stroke="#00f" paint-order="fill stroke markers" d="M278.75 139h75.5v51h-75.5v-51z"/><path stroke="gold" paint-order="fill stroke markers" d="M271.2 139h90.6" stroke-width="3" class="I"/></g><defs ><path id="B" d="M0 0h412v240H0z"/><path id="C" d="M139.5 200h52 0a4 4 0 0 1 4 4v17h0a4 4 0 0 1-4 4h-52 0a4 4 0 0 1-4-4v-17h0a4 4 0 0 1 4-4z"/><path id="D" d="M278.75 40h75.5v150h-75.5V40z"/><path id="E" d="M39 177.5h32 0a4 4 0 0 1 4 4v17h0a4 4 0 0 1-4 4H39h0a4 4 0 0 1-4-4v-17h0a4 4 0 0 1 4-4z"/></defs></svg>