<svg xmlns="http://www.w3.org/2000/svg" width="247" height="62" xmlns:v="https://vecta.io/nano"><style><![CDATA[.B{fill:#000}.C{font-family:Arial}.D{font-size:15px}.E{text-decoration:normal}.F{dominant-baseline:central}.G{stroke:#000}.H{stroke-miterlimit:10}.I{stroke-width:2}.J{fill:#fff}.K{fill:#f0f0f0}]]></style><g class="J"><path d="M0 0h247v62H0z"/><path d="M0 0h247v62H0z"/></g><path paint-order="fill stroke markers" d="M13 12h212v20H13V12z" class="G H I K"/><path d="M0 0h247v62H0z" class="J"/><path paint-order="fill stroke markers" d="M13 12h212v20H13V12z" class="G H I K"/><text x="2.16" y="49.5" class="B C D E F">0%</text><path d="M0 0h247v62H0z" class="J"/><path paint-order="fill stroke markers" d="M13 12h212v20H13V12z" class="G H I K"/><text x="2.16" y="49.5" class="B C D E F">0%</text><text x="103.989" y="49.5" class="B C D E F">50%</text><path d="M0 0h247v62H0z" class="J"/><path paint-order="fill stroke markers" d="M13 12h212v20H13V12z" class="G H I K"/><text x="2.16" y="49.5" class="B C D E F">0%</text><text x="103.989" y="49.5" class="B C D E F">50%</text><text x="205.818" y="49.5" class="B C D E F">100%</text><path d="M0 0h247v62H0z" class="J"/><path paint-order="fill stroke markers" d="M13 12h212v20H13V12z" class="G H I K"/><text x="2.16" y="49.5" class="B C D E F">0%</text><text x="103.989" y="49.5" class="B C D E F">50%</text><text x="205.818" y="49.5" class="B C D E F">100%</text><path fill="#00f" paint-order="fill stroke markers" d="M13 12h147v20H13V12z" class="G H I"/><path d="M0 0h247v62H0z" class="J"/><path paint-order="fill stroke markers" d="M13 12h212v20H13V12z" class="G H I K"/><text x="2.16" y="49.5" class="B C D E F">0%</text><text x="103.989" y="49.5" class="B C D E F">50%</text><text x="205.818" y="49.5" class="B C D E F">100%</text><g class="H"><path fill="#00f" paint-order="fill stroke markers" d="M13 12h147v20H13V12z" class="G I"/><path fill="none" stroke="#ff0" paint-order="fill stroke markers" d="M160 2v40" stroke-width="3"/></g></svg>