<svg xmlns="http://www.w3.org/2000/svg" width="189" height="113" xmlns:v="https://vecta.io/nano"><style><![CDATA[.B{fill:none}.C{stroke:#000}.D{stroke-miterlimit:10}.E{fill:#000}.F{font-family:Arial}.G{font-size:18px}.H{text-decoration:normal}.I{dominant-baseline:central}.J{fill:#fff}.K{stroke-width:2}]]></style><g class="J"><path d="M0 0h189v113H0z"/><path d="M0 0h189v113H0z"/></g><path paint-order="fill stroke markers" d="M51 1h30v25H51V1z" class="B C D"/><text x="59.997" y="13.5" class="E F G H I">A</text><path d="M0 0h189v113H0z" class="J"/><path paint-order="fill stroke markers" d="M51 1h30v25H51V1z" class="B C D"/><text x="59.997" y="13.5" class="E F G H I">A</text><path paint-order="fill stroke markers" d="M101 1h30v25h-30V1z" class="B C D"/><text x="109.997" y="13.5" class="E F G H I">B</text><path d="M0 0h189v113H0z" class="J"/><path paint-order="fill stroke markers" d="M51 1h30v25H51V1z" class="B C D"/><text x="59.997" y="13.5" class="E F G H I">A</text><path paint-order="fill stroke markers" d="M101 1h30v25h-30V1z" class="B C D"/><text x="109.997" y="13.5" class="E F G H I">B</text><path paint-order="fill stroke markers" d="M1 40h30v25H1V40z" class="B C D"/><text x="9.5" y="52.5" class="E F G H I">C</text><path d="M0 0h189v113H0z" class="J"/><path paint-order="fill stroke markers" d="M51 1h30v25H51V1z" class="B C D"/><text x="59.997" y="13.5" class="E F G H I">A</text><path paint-order="fill stroke markers" d="M101 1h30v25h-30V1z" class="B C D"/><text x="109.997" y="13.5" class="E F G H I">B</text><path paint-order="fill stroke markers" d="M1 40h30v25H1V40z" class="B C D"/><text x="9.5" y="52.5" class="E F G H I">C</text><path paint-order="fill stroke markers" d="M76 80h30v25H76V80z" class="B C D"/><text x="84.5" y="92.5" class="E F G H I">D</text><path d="M0 0h189v113H0z" class="J"/><path paint-order="fill stroke markers" d="M51 1h30v25H51V1z" class="B C D"/><text x="59.997" y="13.5" class="E F G H I">A</text><path paint-order="fill stroke markers" d="M101 1h30v25h-30V1z" class="B C D"/><text x="109.997" y="13.5" class="E F G H I">B</text><path paint-order="fill stroke markers" d="M1 40h30v25H1V40z" class="B C D"/><text x="9.5" y="52.5" class="E F G H I">C</text><path paint-order="fill stroke markers" d="M76 80h30v25H76V80z" class="B C D"/><text x="84.5" y="92.5" class="E F G H I">D</text><path paint-order="fill stroke markers" d="M151 40h30v25h-30V40z" class="B C D"/><text x="159.997" y="52.5" class="E F G H I">E</text><path d="M0 0h189v113H0z" class="J"/><path paint-order="fill stroke markers" d="M51 1h30v25H51V1z" class="B C D"/><text x="59.997" y="13.5" class="E F G H I">A</text><path paint-order="fill stroke markers" d="M101 1h30v25h-30V1z" class="B C D"/><text x="109.997" y="13.5" class="E F G H I">B</text><path paint-order="fill stroke markers" d="M1 40h30v25H1V40z" class="B C D"/><text x="9.5" y="52.5" class="E F G H I">C</text><path paint-order="fill stroke markers" d="M76 80h30v25H76V80z" class="B C D"/><text x="84.5" y="92.5" class="E F G H I">D</text><path paint-order="fill stroke markers" d="M151 40h30v25h-30V40z" class="B C D"/><text x="159.997" y="52.5" class="E F G H I">E</text><path d="M0 0h189v113H0z" class="J"/><path paint-order="fill stroke markers" d="M51 1h30v25H51V1z" class="B C D"/><text x="59.997" y="13.5" class="E F G H I">A</text><path paint-order="fill stroke markers" d="M101 1h30v25h-30V1z" class="B C D"/><text x="109.997" y="13.5" class="E F G H I">B</text><path paint-order="fill stroke markers" d="M1 40h30v25H1V40z" class="B C D"/><text x="9.5" y="52.5" class="E F G H I">C</text><path paint-order="fill stroke markers" d="M76 80h30v25H76V80z" class="B C D"/><text x="84.5" y="92.5" class="E F G H I">D</text><path paint-order="fill stroke markers" d="M151 40h30v25h-30V40z" class="B C D"/><text x="159.997" y="52.5" class="E F G H I">E</text><path paint-order="fill stroke markers" d="M66 26l25 54" class="B C D K"/><path d="M0 0h189v113H0z" class="J"/><path paint-order="fill stroke markers" d="M51 1h30v25H51V1z" class="B C D"/><text x="59.997" y="13.5" class="E F G H I">A</text><path paint-order="fill stroke markers" d="M101 1h30v25h-30V1z" class="B C D"/><text x="109.997" y="13.5" class="E F G H I">B</text><path paint-order="fill stroke markers" d="M1 40h30v25H1V40z" class="B C D"/><text x="9.5" y="52.5" class="E F G H I">C</text><path paint-order="fill stroke markers" d="M76 80h30v25H76V80z" class="B C D"/><text x="84.5" y="92.5" class="E F G H I">D</text><path paint-order="fill stroke markers" d="M151 40h30v25h-30V40z" class="B C D"/><text x="159.997" y="52.5" class="E F G H I">E</text><g class="B D K"><path paint-order="fill stroke markers" d="M66 26l25 54" class="C"/><path stroke="#00f" paint-order="fill stroke markers" d="M116 26l35 26.5"/></g><path d="M0 0h189v113H0z" class="J"/><path paint-order="fill stroke markers" d="M51 1h30v25H51V1z" class="B C D"/><text x="59.997" y="13.5" class="E F G H I">A</text><path paint-order="fill stroke markers" d="M101 1h30v25h-30V1z" class="B C D"/><text x="109.997" y="13.5" class="E F G H I">B</text><path paint-order="fill stroke markers" d="M1 40h30v25H1V40z" class="B C D"/><text x="9.5" y="52.5" class="E F G H I">C</text><path paint-order="fill stroke markers" d="M76 80h30v25H76V80z" class="B C D"/><text x="84.5" y="92.5" class="E F G H I">D</text><path paint-order="fill stroke markers" d="M151 40h30v25h-30V40z" class="B C D"/><text x="159.997" y="52.5" class="E F G H I">E</text><g class="B D K"><path paint-order="fill stroke markers" d="M66 26l25 54" class="C"/><path paint-order="fill stroke markers" d="M116 26l35 26.5m-120 0L116 26" stroke="#00f"/></g><path d="M0 0h189v113H0z" class="J"/><path paint-order="fill stroke markers" d="M51 1h30v25H51V1z" class="B C D"/><text x="59.997" y="13.5" class="E F G H I">A</text><path paint-order="fill stroke markers" d="M101 1h30v25h-30V1z" class="B C D"/><text x="109.997" y="13.5" class="E F G H I">B</text><path paint-order="fill stroke markers" d="M1 40h30v25H1V40z" class="B C D"/><text x="9.5" y="52.5" class="E F G H I">C</text><path paint-order="fill stroke markers" d="M76 80h30v25H76V80z" class="B C D"/><text x="84.5" y="92.5" class="E F G H I">D</text><path paint-order="fill stroke markers" d="M151 40h30v25h-30V40z" class="B C D"/><text x="159.997" y="52.5" class="E F G H I">E</text><g class="B D K"><path paint-order="fill stroke markers" d="M66 26l25 54" class="C"/><path paint-order="fill stroke markers" d="M116 26l35 26.5m-120 0L116 26M91 80l25-54" stroke="#00f"/></g></svg>