<svg xmlns="http://www.w3.org/2000/svg" xmlns:xlink="http://www.w3.org/1999/xlink" width="427" height="49" xmlns:v="https://vecta.io/nano"><style><![CDATA[.B{stroke-miterlimit:10}.C{fill:#fff}.D{fill:#add8e6}.E{fill:none}.F{stroke:gray}.G{stroke:#000}.H{stroke-width:1.5}]]></style><g class="C"><use xlink:href="#B"/><use xlink:href="#B"/></g><use xlink:href="#C" paint-order="stroke fill markers" class="D"/><use xlink:href="#B" class="C"/><use xlink:href="#C" paint-order="stroke fill markers" class="D"/><path paint-order="fill stroke markers" d="M2 2v40" class="B E F"/><use xlink:href="#B" class="C"/><use xlink:href="#C" paint-order="stroke fill markers" class="D"/><path paint-order="fill stroke markers" d="M2 2v40m8-40v40" class="B E F"/><use xlink:href="#B" class="C"/><use xlink:href="#C" paint-order="stroke fill markers" class="D"/><path paint-order="fill stroke markers" d="M2 2v40m8-40v40m8-40v40" class="B E F"/><use xlink:href="#B" class="C"/><use xlink:href="#C" paint-order="stroke fill markers" class="D"/><path paint-order="fill stroke markers" d="M2 2v40m8-40v40m8-40v40m8-40v40" class="B E F"/><use xlink:href="#B" class="C"/><use xlink:href="#C" paint-order="stroke fill markers" class="D"/><path paint-order="fill stroke markers" d="M2 2v40m8-40v40m8-40v40m8-40v40m8-40v40" class="B E F"/><use xlink:href="#B" class="C"/><use xlink:href="#C" paint-order="stroke fill markers" class="D"/><path paint-order="fill stroke markers" d="M2 2v40m8-40v40m8-40v40m8-40v40m8-40v40m8-40v40" class="B E F"/><use xlink:href="#B" class="C"/><use xlink:href="#C" paint-order="stroke fill markers" class="D"/><path paint-order="fill stroke markers" d="M2 2v40m8-40v40m8-40v40m8-40v40m8-40v40m8-40v40m8-40v40" class="B E F"/><use xlink:href="#B" class="C"/><use xlink:href="#C" paint-order="stroke fill markers" class="D"/><path paint-order="fill stroke markers" d="M2 2v40m8-40v40m8-40v40m8-40v40m8-40v40m8-40v40m8-40v40m8-40v40" class="B E F"/><use xlink:href="#B" class="C"/><use xlink:href="#C" paint-order="stroke fill markers" class="D"/><path paint-order="fill stroke markers" d="M2 2v40m8-40v40m8-40v40m8-40v40m8-40v40m8-40v40m8-40v40m8-40v40m8-40v40" class="B E F"/><use xlink:href="#B" class="C"/><use xlink:href="#C" paint-order="stroke fill markers" class="D"/><path paint-order="fill stroke markers" d="M2 2v40m8-40v40m8-40v40m8-40v40m8-40v40m8-40v40m8-40v40m8-40v40m8-40v40m8-40v40" class="B E F"/><use xlink:href="#B" class="C"/><use xlink:href="#C" paint-order="stroke fill markers" class="D"/><path paint-order="fill stroke markers" d="M2 2v40m8-40v40m8-40v40m8-40v40m8-40v40m8-40v40m8-40v40m8-40v40m8-40v40m8-40v40m8-40v40" class="B E F"/><use xlink:href="#B" class="C"/><use xlink:href="#C" paint-order="stroke fill markers" class="D"/><path paint-order="fill stroke markers" d="M2 2v40m8-40v40m8-40v40m8-40v40m8-40v40m8-40v40m8-40v40m8-40v40m8-40v40m8-40v40m8-40v40m8-40v40" class="B E F"/><use xlink:href="#B" class="C"/><use xlink:href="#C" paint-order="stroke fill markers" class="D"/><path paint-order="fill stroke markers" d="M2 2v40m8-40v40m8-40v40m8-40v40m8-40v40m8-40v40m8-40v40m8-40v40m8-40v40m8-40v40m8-40v40m8-40v40m8-40v40" class="B E F"/><use xlink:href="#B" class="C"/><use xlink:href="#C" paint-order="stroke fill markers" class="D"/><path paint-order="fill stroke markers" d="M2 2v40m8-40v40m8-40v40m8-40v40m8-40v40m8-40v40m8-40v40m8-40v40m8-40v40m8-40v40m8-40v40m8-40v40m8-40v40m8-40v40" class="B E F"/><use xlink:href="#B" class="C"/><use xlink:href="#C" paint-order="stroke fill markers" class="D"/><path paint-order="fill stroke markers" d="M2 2v40m8-40v40m8-40v40m8-40v40m8-40v40m8-40v40m8-40v40m8-40v40m8-40v40m8-40v40m8-40v40m8-40v40m8-40v40m8-40v40m8-40v40" class="B E F"/><use xlink:href="#B" class="C"/><use xlink:href="#C" paint-order="stroke fill markers" class="D"/><path paint-order="fill stroke markers" d="M2 2v40m8-40v40m8-40v40m8-40v40m8-40v40m8-40v40m8-40v40m8-40v40m8-40v40m8-40v40m8-40v40m8-40v40m8-40v40m8-40v40m8-40v40m8-40v40" class="B E F"/><use xlink:href="#B" class="C"/><use xlink:href="#C" paint-order="stroke fill markers" class="D"/><path paint-order="fill stroke markers" d="M2 2v40m8-40v40m8-40v40m8-40v40m8-40v40m8-40v40m8-40v40m8-40v40m8-40v40m8-40v40m8-40v40m8-40v40m8-40v40m8-40v40m8-40v40m8-40v40m8-40v40" class="B E F"/><use xlink:href="#B" class="C"/><use xlink:href="#C" paint-order="stroke fill markers" class="D"/><path paint-order="fill stroke markers" d="M2 2v40m8-40v40m8-40v40m8-40v40m8-40v40m8-40v40m8-40v40m8-40v40m8-40v40m8-40v40m8-40v40m8-40v40m8-40v40m8-40v40m8-40v40m8-40v40m8-40v40m8-40v40" class="B E F"/><use xlink:href="#B" class="C"/><use xlink:href="#C" paint-order="stroke fill markers" class="D"/><path paint-order="fill stroke markers" d="M2 2v40m8-40v40m8-40v40m8-40v40m8-40v40m8-40v40m8-40v40m8-40v40m8-40v40m8-40v40m8-40v40m8-40v40m8-40v40m8-40v40m8-40v40m8-40v40m8-40v40m8-40v40m8-40v40" class="B E F"/><use xlink:href="#B" class="C"/><use xlink:href="#C" paint-order="stroke fill markers" class="D"/><path paint-order="fill stroke markers" d="M2 2v40m8-40v40m8-40v40m8-40v40m8-40v40m8-40v40m8-40v40m8-40v40m8-40v40m8-40v40m8-40v40m8-40v40m8-40v40m8-40v40m8-40v40m8-40v40m8-40v40m8-40v40m8-40v40m8-40v40" class="B E F"/><use xlink:href="#B" class="C"/><use xlink:href="#C" paint-order="stroke fill markers" class="D"/><path paint-order="fill stroke markers" d="M2 2v40m8-40v40m8-40v40m8-40v40m8-40v40m8-40v40m8-40v40m8-40v40m8-40v40m8-40v40m8-40v40m8-40v40m8-40v40m8-40v40m8-40v40m8-40v40m8-40v40m8-40v40m8-40v40m8-40v40m8-40v40" class="B E F"/><use xlink:href="#B" class="C"/><use xlink:href="#C" paint-order="stroke fill markers" class="D"/><path paint-order="fill stroke markers" d="M2 2v40m8-40v40m8-40v40m8-40v40m8-40v40m8-40v40m8-40v40m8-40v40m8-40v40m8-40v40m8-40v40m8-40v40m8-40v40m8-40v40m8-40v40m8-40v40m8-40v40m8-40v40m8-40v40m8-40v40m8-40v40m8-40v40" class="B E F"/><use xlink:href="#B" class="C"/><use xlink:href="#C" paint-order="stroke fill markers" class="D"/><path paint-order="fill stroke markers" d="M2 2v40m8-40v40m8-40v40m8-40v40m8-40v40m8-40v40m8-40v40m8-40v40m8-40v40m8-40v40m8-40v40m8-40v40m8-40v40m8-40v40m8-40v40m8-40v40m8-40v40m8-40v40m8-40v40m8-40v40m8-40v40m8-40v40m8-40v40" class="B E F"/><use xlink:href="#B" class="C"/><use xlink:href="#C" paint-order="stroke fill markers" class="D"/><path paint-order="fill stroke markers" d="M2 2v40m8-40v40m8-40v40m8-40v40m8-40v40m8-40v40m8-40v40m8-40v40m8-40v40m8-40v40m8-40v40m8-40v40m8-40v40m8-40v40m8-40v40m8-40v40m8-40v40m8-40v40m8-40v40m8-40v40m8-40v40m8-40v40m8-40v40m8-40v40" class="B E F"/><use xlink:href="#B" class="C"/><use xlink:href="#C" paint-order="stroke fill markers" class="D"/><path paint-order="fill stroke markers" d="M2 2v40m8-40v40m8-40v40m8-40v40m8-40v40m8-40v40m8-40v40m8-40v40m8-40v40m8-40v40m8-40v40m8-40v40m8-40v40m8-40v40m8-40v40m8-40v40m8-40v40m8-40v40m8-40v40m8-40v40m8-40v40m8-40v40m8-40v40m8-40v40m8-40v40" class="B E F"/><use xlink:href="#B" class="C"/><use xlink:href="#C" paint-order="stroke fill markers" class="D"/><path paint-order="fill stroke markers" d="M2 2v40m8-40v40m8-40v40m8-40v40m8-40v40m8-40v40m8-40v40m8-40v40m8-40v40m8-40v40m8-40v40m8-40v40m8-40v40m8-40v40m8-40v40m8-40v40m8-40v40m8-40v40m8-40v40m8-40v40m8-40v40m8-40v40m8-40v40m8-40v40m8-40v40m8-40v40" class="B E F"/><use xlink:href="#B" class="C"/><use xlink:href="#C" paint-order="stroke fill markers" class="D"/><path paint-order="fill stroke markers" d="M2 2v40m8-40v40m8-40v40m8-40v40m8-40v40m8-40v40m8-40v40m8-40v40m8-40v40m8-40v40m8-40v40m8-40v40m8-40v40m8-40v40m8-40v40m8-40v40m8-40v40m8-40v40m8-40v40m8-40v40m8-40v40m8-40v40m8-40v40m8-40v40m8-40v40m8-40v40m8-40v40" class="B E F"/><use xlink:href="#B" class="C"/><use xlink:href="#C" paint-order="stroke fill markers" class="D"/><path paint-order="fill stroke markers" d="M2 2v40m8-40v40m8-40v40m8-40v40m8-40v40m8-40v40m8-40v40m8-40v40m8-40v40m8-40v40m8-40v40m8-40v40m8-40v40m8-40v40m8-40v40m8-40v40m8-40v40m8-40v40m8-40v40m8-40v40m8-40v40m8-40v40m8-40v40m8-40v40m8-40v40m8-40v40m8-40v40m8-40v40" class="B E F"/><use xlink:href="#B" class="C"/><use xlink:href="#C" paint-order="stroke fill markers" class="D"/><path paint-order="fill stroke markers" d="M2 2v40m8-40v40m8-40v40m8-40v40m8-40v40m8-40v40m8-40v40m8-40v40m8-40v40m8-40v40m8-40v40m8-40v40m8-40v40m8-40v40m8-40v40m8-40v40m8-40v40m8-40v40m8-40v40m8-40v40m8-40v40m8-40v40m8-40v40m8-40v40m8-40v40m8-40v40m8-40v40m8-40v40m8-40v40" class="B E F"/><use xlink:href="#B" class="C"/><use xlink:href="#C" paint-order="stroke fill markers" class="D"/><path paint-order="fill stroke markers" d="M2 2v40m8-40v40m8-40v40m8-40v40m8-40v40m8-40v40m8-40v40m8-40v40m8-40v40m8-40v40m8-40v40m8-40v40m8-40v40m8-40v40m8-40v40m8-40v40m8-40v40m8-40v40m8-40v40m8-40v40m8-40v40m8-40v40m8-40v40m8-40v40m8-40v40m8-40v40m8-40v40m8-40v40m8-40v40m8-40v40" class="B E F"/><use xlink:href="#B" class="C"/><use xlink:href="#C" paint-order="stroke fill markers" class="D"/><path paint-order="fill stroke markers" d="M2 2v40m8-40v40m8-40v40m8-40v40m8-40v40m8-40v40m8-40v40m8-40v40m8-40v40m8-40v40m8-40v40m8-40v40m8-40v40m8-40v40m8-40v40m8-40v40m8-40v40m8-40v40m8-40v40m8-40v40m8-40v40m8-40v40m8-40v40m8-40v40m8-40v40m8-40v40m8-40v40m8-40v40m8-40v40m8-40v40m8-40v40" class="B E F"/><use xlink:href="#B" class="C"/><use xlink:href="#C" paint-order="stroke fill markers" class="D"/><path paint-order="fill stroke markers" d="M2 2v40m8-40v40m8-40v40m8-40v40m8-40v40m8-40v40m8-40v40m8-40v40m8-40v40m8-40v40m8-40v40m8-40v40m8-40v40m8-40v40m8-40v40m8-40v40m8-40v40m8-40v40m8-40v40m8-40v40m8-40v40m8-40v40m8-40v40m8-40v40m8-40v40m8-40v40m8-40v40m8-40v40m8-40v40m8-40v40m8-40v40m8-40v40" class="B E F"/><use xlink:href="#B" class="C"/><use xlink:href="#C" paint-order="stroke fill markers" class="D"/><path paint-order="fill stroke markers" d="M2 2v40m8-40v40m8-40v40m8-40v40m8-40v40m8-40v40m8-40v40m8-40v40m8-40v40m8-40v40m8-40v40m8-40v40m8-40v40m8-40v40m8-40v40m8-40v40m8-40v40m8-40v40m8-40v40m8-40v40m8-40v40m8-40v40m8-40v40m8-40v40m8-40v40m8-40v40m8-40v40m8-40v40m8-40v40m8-40v40m8-40v40m8-40v40m8-40v40" class="B E F"/><use xlink:href="#B" class="C"/><use xlink:href="#C" paint-order="stroke fill markers" class="D"/><path paint-order="fill stroke markers" d="M2 2v40m8-40v40m8-40v40m8-40v40m8-40v40m8-40v40m8-40v40m8-40v40m8-40v40m8-40v40m8-40v40m8-40v40m8-40v40m8-40v40m8-40v40m8-40v40m8-40v40m8-40v40m8-40v40m8-40v40m8-40v40m8-40v40m8-40v40m8-40v40m8-40v40m8-40v40m8-40v40m8-40v40m8-40v40m8-40v40m8-40v40m8-40v40m8-40v40m8-40v40" class="B E F"/><use xlink:href="#B" class="C"/><use xlink:href="#C" paint-order="stroke fill markers" class="D"/><path paint-order="fill stroke markers" d="M2 2v40m8-40v40m8-40v40m8-40v40m8-40v40m8-40v40m8-40v40m8-40v40m8-40v40m8-40v40m8-40v40m8-40v40m8-40v40m8-40v40m8-40v40m8-40v40m8-40v40m8-40v40m8-40v40m8-40v40m8-40v40m8-40v40m8-40v40m8-40v40m8-40v40m8-40v40m8-40v40m8-40v40m8-40v40m8-40v40m8-40v40m8-40v40m8-40v40m8-40v40m8-40v40" class="B E F"/><use xlink:href="#B" class="C"/><use xlink:href="#C" paint-order="stroke fill markers" class="D"/><path paint-order="fill stroke markers" d="M2 2v40m8-40v40m8-40v40m8-40v40m8-40v40m8-40v40m8-40v40m8-40v40m8-40v40m8-40v40m8-40v40m8-40v40m8-40v40m8-40v40m8-40v40m8-40v40m8-40v40m8-40v40m8-40v40m8-40v40m8-40v40m8-40v40m8-40v40m8-40v40m8-40v40m8-40v40m8-40v40m8-40v40m8-40v40m8-40v40m8-40v40m8-40v40m8-40v40m8-40v40m8-40v40m8-40v40" class="B E F"/><use xlink:href="#B" class="C"/><use xlink:href="#C" paint-order="stroke fill markers" class="D"/><path paint-order="fill stroke markers" d="M2 2v40m8-40v40m8-40v40m8-40v40m8-40v40m8-40v40m8-40v40m8-40v40m8-40v40m8-40v40m8-40v40m8-40v40m8-40v40m8-40v40m8-40v40m8-40v40m8-40v40m8-40v40m8-40v40m8-40v40m8-40v40m8-40v40m8-40v40m8-40v40m8-40v40m8-40v40m8-40v40m8-40v40m8-40v40m8-40v40m8-40v40m8-40v40m8-40v40m8-40v40m8-40v40m8-40v40m8-40v40" class="B E F"/><use xlink:href="#B" class="C"/><use xlink:href="#C" paint-order="stroke fill markers" class="D"/><path paint-order="fill stroke markers" d="M2 2v40m8-40v40m8-40v40m8-40v40m8-40v40m8-40v40m8-40v40m8-40v40m8-40v40m8-40v40m8-40v40m8-40v40m8-40v40m8-40v40m8-40v40m8-40v40m8-40v40m8-40v40m8-40v40m8-40v40m8-40v40m8-40v40m8-40v40m8-40v40m8-40v40m8-40v40m8-40v40m8-40v40m8-40v40m8-40v40m8-40v40m8-40v40m8-40v40m8-40v40m8-40v40m8-40v40m8-40v40m8-40v40" class="B E F"/><use xlink:href="#B" class="C"/><use xlink:href="#C" paint-order="stroke fill markers" class="D"/><path paint-order="fill stroke markers" d="M2 2v40m8-40v40m8-40v40m8-40v40m8-40v40m8-40v40m8-40v40m8-40v40m8-40v40m8-40v40m8-40v40m8-40v40m8-40v40m8-40v40m8-40v40m8-40v40m8-40v40m8-40v40m8-40v40m8-40v40m8-40v40m8-40v40m8-40v40m8-40v40m8-40v40m8-40v40m8-40v40m8-40v40m8-40v40m8-40v40m8-40v40m8-40v40m8-40v40m8-40v40m8-40v40m8-40v40m8-40v40m8-40v40m8-40v40" class="B E F"/><use xlink:href="#B" class="C"/><use xlink:href="#C" paint-order="stroke fill markers" class="D"/><path paint-order="fill stroke markers" d="M2 2v40m8-40v40m8-40v40m8-40v40m8-40v40m8-40v40m8-40v40m8-40v40m8-40v40m8-40v40m8-40v40m8-40v40m8-40v40m8-40v40m8-40v40m8-40v40m8-40v40m8-40v40m8-40v40m8-40v40m8-40v40m8-40v40m8-40v40m8-40v40m8-40v40m8-40v40m8-40v40m8-40v40m8-40v40m8-40v40m8-40v40m8-40v40m8-40v40m8-40v40m8-40v40m8-40v40m8-40v40m8-40v40m8-40v40m8-40v40" class="B E F"/><use xlink:href="#B" class="C"/><use xlink:href="#C" paint-order="stroke fill markers" class="D"/><path paint-order="fill stroke markers" d="M2 2v40m8-40v40m8-40v40m8-40v40m8-40v40m8-40v40m8-40v40m8-40v40m8-40v40m8-40v40m8-40v40m8-40v40m8-40v40m8-40v40m8-40v40m8-40v40m8-40v40m8-40v40m8-40v40m8-40v40m8-40v40m8-40v40m8-40v40m8-40v40m8-40v40m8-40v40m8-40v40m8-40v40m8-40v40m8-40v40m8-40v40m8-40v40m8-40v40m8-40v40m8-40v40m8-40v40m8-40v40m8-40v40m8-40v40m8-40v40m8-40v40" class="B E F"/><use xlink:href="#B" class="C"/><use xlink:href="#C" paint-order="stroke fill markers" class="D"/><path paint-order="fill stroke markers" d="M2 2v40m8-40v40m8-40v40m8-40v40m8-40v40m8-40v40m8-40v40m8-40v40m8-40v40m8-40v40m8-40v40m8-40v40m8-40v40m8-40v40m8-40v40m8-40v40m8-40v40m8-40v40m8-40v40m8-40v40m8-40v40m8-40v40m8-40v40m8-40v40m8-40v40m8-40v40m8-40v40m8-40v40m8-40v40m8-40v40m8-40v40m8-40v40m8-40v40m8-40v40m8-40v40m8-40v40m8-40v40m8-40v40m8-40v40m8-40v40m8-40v40m8-40v40" class="B E F"/><use xlink:href="#B" class="C"/><use xlink:href="#C" paint-order="stroke fill markers" class="D"/><path paint-order="fill stroke markers" d="M2 2v40m8-40v40m8-40v40m8-40v40m8-40v40m8-40v40m8-40v40m8-40v40m8-40v40m8-40v40m8-40v40m8-40v40m8-40v40m8-40v40m8-40v40m8-40v40m8-40v40m8-40v40m8-40v40m8-40v40m8-40v40m8-40v40m8-40v40m8-40v40m8-40v40m8-40v40m8-40v40m8-40v40m8-40v40m8-40v40m8-40v40m8-40v40m8-40v40m8-40v40m8-40v40m8-40v40m8-40v40m8-40v40m8-40v40m8-40v40m8-40v40m8-40v40m8-40v40" class="B E F"/><use xlink:href="#B" class="C"/><use xlink:href="#C" paint-order="stroke fill markers" class="D"/><path paint-order="fill stroke markers" d="M2 2v40m8-40v40m8-40v40m8-40v40m8-40v40m8-40v40m8-40v40m8-40v40m8-40v40m8-40v40m8-40v40m8-40v40m8-40v40m8-40v40m8-40v40m8-40v40m8-40v40m8-40v40m8-40v40m8-40v40m8-40v40m8-40v40m8-40v40m8-40v40m8-40v40m8-40v40m8-40v40m8-40v40m8-40v40m8-40v40m8-40v40m8-40v40m8-40v40m8-40v40m8-40v40m8-40v40m8-40v40m8-40v40m8-40v40m8-40v40m8-40v40m8-40v40m8-40v40m8-40v40" class="B E F"/><use xlink:href="#B" class="C"/><use xlink:href="#C" paint-order="stroke fill markers" class="D"/><path paint-order="fill stroke markers" d="M2 2v40m8-40v40m8-40v40m8-40v40m8-40v40m8-40v40m8-40v40m8-40v40m8-40v40m8-40v40m8-40v40m8-40v40m8-40v40m8-40v40m8-40v40m8-40v40m8-40v40m8-40v40m8-40v40m8-40v40m8-40v40m8-40v40m8-40v40m8-40v40m8-40v40m8-40v40m8-40v40m8-40v40m8-40v40m8-40v40m8-40v40m8-40v40m8-40v40m8-40v40m8-40v40m8-40v40m8-40v40m8-40v40m8-40v40m8-40v40m8-40v40m8-40v40m8-40v40m8-40v40m8-40v40" class="B E F"/><use xlink:href="#B" class="C"/><use xlink:href="#C" paint-order="stroke fill markers" class="D"/><path paint-order="fill stroke markers" d="M2 2v40m8-40v40m8-40v40m8-40v40m8-40v40m8-40v40m8-40v40m8-40v40m8-40v40m8-40v40m8-40v40m8-40v40m8-40v40m8-40v40m8-40v40m8-40v40m8-40v40m8-40v40m8-40v40m8-40v40m8-40v40m8-40v40m8-40v40m8-40v40m8-40v40m8-40v40m8-40v40m8-40v40m8-40v40m8-40v40m8-40v40m8-40v40m8-40v40m8-40v40m8-40v40m8-40v40m8-40v40m8-40v40m8-40v40m8-40v40m8-40v40m8-40v40m8-40v40m8-40v40m8-40v40m8-40v40" class="B E F"/><use xlink:href="#B" class="C"/><use xlink:href="#C" paint-order="stroke fill markers" class="D"/><path paint-order="fill stroke markers" d="M2 2v40m8-40v40m8-40v40m8-40v40m8-40v40m8-40v40m8-40v40m8-40v40m8-40v40m8-40v40m8-40v40m8-40v40m8-40v40m8-40v40m8-40v40m8-40v40m8-40v40m8-40v40m8-40v40m8-40v40m8-40v40m8-40v40m8-40v40m8-40v40m8-40v40m8-40v40m8-40v40m8-40v40m8-40v40m8-40v40m8-40v40m8-40v40m8-40v40m8-40v40m8-40v40m8-40v40m8-40v40m8-40v40m8-40v40m8-40v40m8-40v40m8-40v40m8-40v40m8-40v40m8-40v40m8-40v40m8-40v40" class="B E F"/><use xlink:href="#B" class="C"/><use xlink:href="#C" paint-order="stroke fill markers" class="D"/><path paint-order="fill stroke markers" d="M2 2v40m8-40v40m8-40v40m8-40v40m8-40v40m8-40v40m8-40v40m8-40v40m8-40v40m8-40v40m8-40v40m8-40v40m8-40v40m8-40v40m8-40v40m8-40v40m8-40v40m8-40v40m8-40v40m8-40v40m8-40v40m8-40v40m8-40v40m8-40v40m8-40v40m8-40v40m8-40v40m8-40v40m8-40v40m8-40v40m8-40v40m8-40v40m8-40v40m8-40v40m8-40v40m8-40v40m8-40v40m8-40v40m8-40v40m8-40v40m8-40v40m8-40v40m8-40v40m8-40v40m8-40v40m8-40v40m8-40v40m8-40v40" class="B E F"/><use xlink:href="#B" class="C"/><use xlink:href="#C" paint-order="stroke fill markers" class="D"/><path paint-order="fill stroke markers" d="M2 2v40m8-40v40m8-40v40m8-40v40m8-40v40m8-40v40m8-40v40m8-40v40m8-40v40m8-40v40m8-40v40m8-40v40m8-40v40m8-40v40m8-40v40m8-40v40m8-40v40m8-40v40m8-40v40m8-40v40m8-40v40m8-40v40m8-40v40m8-40v40m8-40v40m8-40v40m8-40v40m8-40v40m8-40v40m8-40v40m8-40v40m8-40v40m8-40v40m8-40v40m8-40v40m8-40v40m8-40v40m8-40v40m8-40v40m8-40v40m8-40v40m8-40v40m8-40v40m8-40v40m8-40v40m8-40v40m8-40v40m8-40v40m8-40v40" class="B E F"/><use xlink:href="#B" class="C"/><use xlink:href="#C" paint-order="stroke fill markers" class="D"/><path paint-order="fill stroke markers" d="M2 2v40m8-40v40m8-40v40m8-40v40m8-40v40m8-40v40m8-40v40m8-40v40m8-40v40m8-40v40m8-40v40m8-40v40m8-40v40m8-40v40m8-40v40m8-40v40m8-40v40m8-40v40m8-40v40m8-40v40m8-40v40m8-40v40m8-40v40m8-40v40m8-40v40m8-40v40m8-40v40m8-40v40m8-40v40m8-40v40m8-40v40m8-40v40m8-40v40m8-40v40m8-40v40m8-40v40m8-40v40m8-40v40m8-40v40m8-40v40m8-40v40m8-40v40m8-40v40m8-40v40m8-40v40m8-40v40m8-40v40m8-40v40m8-40v40m8-40v40" class="B E F"/><use xlink:href="#B" class="C"/><use xlink:href="#C" paint-order="stroke fill markers" class="D"/><path paint-order="fill stroke markers" d="M2 2v40m8-40v40m8-40v40m8-40v40m8-40v40m8-40v40m8-40v40m8-40v40m8-40v40m8-40v40m8-40v40m8-40v40m8-40v40m8-40v40m8-40v40m8-40v40m8-40v40m8-40v40m8-40v40m8-40v40m8-40v40m8-40v40m8-40v40m8-40v40m8-40v40m8-40v40m8-40v40m8-40v40m8-40v40m8-40v40m8-40v40m8-40v40m8-40v40m8-40v40m8-40v40m8-40v40m8-40v40m8-40v40m8-40v40m8-40v40m8-40v40m8-40v40m8-40v40m8-40v40m8-40v40m8-40v40m8-40v40m8-40v40m8-40v40m8-40v40m8-40v40" class="B E F"/><use xlink:href="#B" class="C"/><use xlink:href="#C" paint-order="stroke fill markers" class="D"/><g class="E B"><path paint-order="fill stroke markers" d="M2 2v40m8-40v40m8-40v40m8-40v40m8-40v40m8-40v40m8-40v40m8-40v40m8-40v40m8-40v40m8-40v40m8-40v40m8-40v40m8-40v40m8-40v40m8-40v40m8-40v40m8-40v40m8-40v40m8-40v40m8-40v40m8-40v40m8-40v40m8-40v40m8-40v40m8-40v40m8-40v40m8-40v40m8-40v40m8-40v40m8-40v40m8-40v40m8-40v40m8-40v40m8-40v40m8-40v40m8-40v40m8-40v40m8-40v40m8-40v40m8-40v40m8-40v40m8-40v40m8-40v40m8-40v40m8-40v40m8-40v40m8-40v40m8-40v40m8-40v40m8-40v40" class="F"/><path paint-order="fill stroke markers" d="M2 2v40" class="G H"/></g><use xlink:href="#B" class="C"/><use xlink:href="#C" paint-order="stroke fill markers" class="D"/><g class="E B"><path paint-order="fill stroke markers" d="M2 2v40m8-40v40m8-40v40m8-40v40m8-40v40m8-40v40m8-40v40m8-40v40m8-40v40m8-40v40m8-40v40m8-40v40m8-40v40m8-40v40m8-40v40m8-40v40m8-40v40m8-40v40m8-40v40m8-40v40m8-40v40m8-40v40m8-40v40m8-40v40m8-40v40m8-40v40m8-40v40m8-40v40m8-40v40m8-40v40m8-40v40m8-40v40m8-40v40m8-40v40m8-40v40m8-40v40m8-40v40m8-40v40m8-40v40m8-40v40m8-40v40m8-40v40m8-40v40m8-40v40m8-40v40m8-40v40m8-40v40m8-40v40m8-40v40m8-40v40m8-40v40" class="F"/><path paint-order="fill stroke markers" d="M2 2v40M82 2v40" class="G H"/></g><use xlink:href="#B" class="C"/><use xlink:href="#C" paint-order="stroke fill markers" class="D"/><g class="E B"><path paint-order="fill stroke markers" d="M2 2v40m8-40v40m8-40v40m8-40v40m8-40v40m8-40v40m8-40v40m8-40v40m8-40v40m8-40v40m8-40v40m8-40v40m8-40v40m8-40v40m8-40v40m8-40v40m8-40v40m8-40v40m8-40v40m8-40v40m8-40v40m8-40v40m8-40v40m8-40v40m8-40v40m8-40v40m8-40v40m8-40v40m8-40v40m8-40v40m8-40v40m8-40v40m8-40v40m8-40v40m8-40v40m8-40v40m8-40v40m8-40v40m8-40v40m8-40v40m8-40v40m8-40v40m8-40v40m8-40v40m8-40v40m8-40v40m8-40v40m8-40v40m8-40v40m8-40v40m8-40v40" class="F"/><path paint-order="fill stroke markers" d="M2 2v40M82 2v40m80-40v40" class="G H"/></g><use xlink:href="#B" class="C"/><use xlink:href="#C" paint-order="stroke fill markers" class="D"/><g class="E B"><path paint-order="fill stroke markers" d="M2 2v40m8-40v40m8-40v40m8-40v40m8-40v40m8-40v40m8-40v40m8-40v40m8-40v40m8-40v40m8-40v40m8-40v40m8-40v40m8-40v40m8-40v40m8-40v40m8-40v40m8-40v40m8-40v40m8-40v40m8-40v40m8-40v40m8-40v40m8-40v40m8-40v40m8-40v40m8-40v40m8-40v40m8-40v40m8-40v40m8-40v40m8-40v40m8-40v40m8-40v40m8-40v40m8-40v40m8-40v40m8-40v40m8-40v40m8-40v40m8-40v40m8-40v40m8-40v40m8-40v40m8-40v40m8-40v40m8-40v40m8-40v40m8-40v40m8-40v40m8-40v40" class="F"/><path paint-order="fill stroke markers" d="M2 2v40M82 2v40m80-40v40m80-40v40" class="G H"/></g><use xlink:href="#B" class="C"/><use xlink:href="#C" paint-order="stroke fill markers" class="D"/><g class="E B"><path paint-order="fill stroke markers" d="M2 2v40m8-40v40m8-40v40m8-40v40m8-40v40m8-40v40m8-40v40m8-40v40m8-40v40m8-40v40m8-40v40m8-40v40m8-40v40m8-40v40m8-40v40m8-40v40m8-40v40m8-40v40m8-40v40m8-40v40m8-40v40m8-40v40m8-40v40m8-40v40m8-40v40m8-40v40m8-40v40m8-40v40m8-40v40m8-40v40m8-40v40m8-40v40m8-40v40m8-40v40m8-40v40m8-40v40m8-40v40m8-40v40m8-40v40m8-40v40m8-40v40m8-40v40m8-40v40m8-40v40m8-40v40m8-40v40m8-40v40m8-40v40m8-40v40m8-40v40m8-40v40" class="F"/><path paint-order="fill stroke markers" d="M2 2v40M82 2v40m80-40v40m80-40v40m80-40v40" class="G H"/></g><use xlink:href="#B" class="C"/><use xlink:href="#C" paint-order="stroke fill markers" class="D"/><g class="E B"><path paint-order="fill stroke markers" d="M2 2v40m8-40v40m8-40v40m8-40v40m8-40v40m8-40v40m8-40v40m8-40v40m8-40v40m8-40v40m8-40v40m8-40v40m8-40v40m8-40v40m8-40v40m8-40v40m8-40v40m8-40v40m8-40v40m8-40v40m8-40v40m8-40v40m8-40v40m8-40v40m8-40v40m8-40v40m8-40v40m8-40v40m8-40v40m8-40v40m8-40v40m8-40v40m8-40v40m8-40v40m8-40v40m8-40v40m8-40v40m8-40v40m8-40v40m8-40v40m8-40v40m8-40v40m8-40v40m8-40v40m8-40v40m8-40v40m8-40v40m8-40v40m8-40v40m8-40v40m8-40v40" class="F"/><path paint-order="fill stroke markers" d="M2 2v40M82 2v40m80-40v40m80-40v40m80-40v40m80-40v40" class="G H"/></g><use xlink:href="#B" class="C"/><use xlink:href="#C" paint-order="stroke fill markers" class="D"/><g class="E B"><path paint-order="fill stroke markers" d="M2 2v40m8-40v40m8-40v40m8-40v40m8-40v40m8-40v40m8-40v40m8-40v40m8-40v40m8-40v40m8-40v40m8-40v40m8-40v40m8-40v40m8-40v40m8-40v40m8-40v40m8-40v40m8-40v40m8-40v40m8-40v40m8-40v40m8-40v40m8-40v40m8-40v40m8-40v40m8-40v40m8-40v40m8-40v40m8-40v40m8-40v40m8-40v40m8-40v40m8-40v40m8-40v40m8-40v40m8-40v40m8-40v40m8-40v40m8-40v40m8-40v40m8-40v40m8-40v40m8-40v40m8-40v40m8-40v40m8-40v40m8-40v40m8-40v40m8-40v40m8-40v40" class="F"/><g class="G"><path paint-order="fill stroke markers" d="M2 2v40M82 2v40m80-40v40m80-40v40m80-40v40m80-40v40" class="H"/><path paint-order="fill stroke markers" d="M2 2h400v40H2V2z" stroke-width="3"/></g></g><defs ><path id="B" d="M0 0h427v49H0z"/><path id="C" d="M2 2h200v40H2V2z"/></defs></svg>