<svg xmlns="http://www.w3.org/2000/svg" xmlns:xlink="http://www.w3.org/1999/xlink" width="359" height="74" xmlns:v="https://vecta.io/nano"><style><![CDATA[.B{stroke:#000}.C{stroke-miterlimit:10}.D{fill:none}.E{fill:#fff}.F{stroke-width:2}.G{fill:#000}.H{font-family:Arial}.I{font-size:20px}.J{text-decoration:normal}.K{dominant-baseline:central}.L{stroke-width:3}]]></style><g class="E"><use xlink:href="#B"/><use xlink:href="#B"/></g><path paint-order="fill stroke markers" d="M10 30h300" class="B C D"/><use xlink:href="#B" class="E"/><path paint-order="fill stroke markers" d="M10 30h300m0 0h35" class="B C D"/><use xlink:href="#B" class="E"/><path paint-order="fill stroke markers" d="M10 30h300m0 0h35" class="B C D"/><use xlink:href="#C" paint-order="fill stroke markers" class="B C"/><use xlink:href="#B" class="E"/><path paint-order="fill stroke markers" d="M10 30h300m0 0h35" class="B C D"/><use xlink:href="#C" paint-order="fill stroke markers" class="B C"/><path paint-order="fill stroke markers" d="M17.5 22.5v15" class="B C D"/><use xlink:href="#B" class="E"/><path paint-order="fill stroke markers" d="M10 30h300m0 0h35" class="B C D"/><use xlink:href="#C" paint-order="fill stroke markers" class="B C"/><path paint-order="fill stroke markers" d="M17.5 22.5v15m7.5-15v15" class="D B C"/><use xlink:href="#B" class="E"/><path paint-order="fill stroke markers" d="M10 30h300m0 0h35" class="B C D"/><use xlink:href="#C" paint-order="fill stroke markers" class="B C"/><path paint-order="fill stroke markers" d="M17.5 22.5v15m7.5-15v15m7.5-15v15" class="D B C"/><use xlink:href="#B" class="E"/><path paint-order="fill stroke markers" d="M10 30h300m0 0h35" class="B C D"/><use xlink:href="#C" paint-order="fill stroke markers" class="B C"/><path paint-order="fill stroke markers" d="M17.5 22.5v15m7.5-15v15m7.5-15v15m7.5-15v15" class="D B C"/><use xlink:href="#B" class="E"/><path paint-order="fill stroke markers" d="M10 30h300m0 0h35" class="B C D"/><use xlink:href="#C" paint-order="fill stroke markers" class="B C"/><path paint-order="fill stroke markers" d="M17.5 22.5v15m7.5-15v15m7.5-15v15m7.5-15v15m15-15v15" class="D B C"/><use xlink:href="#B" class="E"/><path paint-order="fill stroke markers" d="M10 30h300m0 0h35" class="B C D"/><use xlink:href="#C" paint-order="fill stroke markers" class="B C"/><path paint-order="fill stroke markers" d="M17.5 22.5v15m7.5-15v15m7.5-15v15m7.5-15v15m15-15v15m7.5-15v15" class="D B C"/><use xlink:href="#B" class="E"/><path paint-order="fill stroke markers" d="M10 30h300m0 0h35" class="B C D"/><use xlink:href="#C" paint-order="fill stroke markers" class="B C"/><path paint-order="fill stroke markers" d="M17.5 22.5v15m7.5-15v15m7.5-15v15m7.5-15v15m15-15v15m7.5-15v15m7.5-15v15" class="D B C"/><use xlink:href="#B" class="E"/><path paint-order="fill stroke markers" d="M10 30h300m0 0h35" class="B C D"/><use xlink:href="#C" paint-order="fill stroke markers" class="B C"/><path paint-order="fill stroke markers" d="M17.5 22.5v15m7.5-15v15m7.5-15v15m7.5-15v15m15-15v15m7.5-15v15m7.5-15v15m7.5-15v15" class="D B C"/><use xlink:href="#B" class="E"/><path paint-order="fill stroke markers" d="M10 30h300m0 0h35" class="B C D"/><use xlink:href="#C" paint-order="fill stroke markers" class="B C"/><path paint-order="fill stroke markers" d="M17.5 22.5v15m7.5-15v15m7.5-15v15m7.5-15v15m15-15v15m7.5-15v15m7.5-15v15m7.5-15v15m15-15v15" class="D B C"/><use xlink:href="#B" class="E"/><path paint-order="fill stroke markers" d="M10 30h300m0 0h35" class="B C D"/><use xlink:href="#C" paint-order="fill stroke markers" class="B C"/><path paint-order="fill stroke markers" d="M17.5 22.5v15m7.5-15v15m7.5-15v15m7.5-15v15m15-15v15m7.5-15v15m7.5-15v15m7.5-15v15m15-15v15m7.5-15v15" class="D B C"/><use xlink:href="#B" class="E"/><path paint-order="fill stroke markers" d="M10 30h300m0 0h35" class="B C D"/><use xlink:href="#C" paint-order="fill stroke markers" class="B C"/><path paint-order="fill stroke markers" d="M17.5 22.5v15m7.5-15v15m7.5-15v15m7.5-15v15m15-15v15m7.5-15v15m7.5-15v15m7.5-15v15m15-15v15m7.5-15v15m7.5-15v15" class="D B C"/><use xlink:href="#B" class="E"/><path paint-order="fill stroke markers" d="M10 30h300m0 0h35" class="B C D"/><use xlink:href="#C" paint-order="fill stroke markers" class="B C"/><path paint-order="fill stroke markers" d="M17.5 22.5v15m7.5-15v15m7.5-15v15m7.5-15v15m15-15v15m7.5-15v15m7.5-15v15m7.5-15v15m15-15v15m7.5-15v15m7.5-15v15m7.5-15v15" class="D B C"/><use xlink:href="#B" class="E"/><path paint-order="fill stroke markers" d="M10 30h300m0 0h35" class="B C D"/><use xlink:href="#C" paint-order="fill stroke markers" class="B C"/><path paint-order="fill stroke markers" d="M17.5 22.5v15m7.5-15v15m7.5-15v15m7.5-15v15m15-15v15m7.5-15v15m7.5-15v15m7.5-15v15m15-15v15m7.5-15v15m7.5-15v15m7.5-15v15m15-15v15" class="D B C"/><use xlink:href="#B" class="E"/><path paint-order="fill stroke markers" d="M10 30h300m0 0h35" class="B C D"/><use xlink:href="#C" paint-order="fill stroke markers" class="B C"/><path paint-order="fill stroke markers" d="M17.5 22.5v15m7.5-15v15m7.5-15v15m7.5-15v15m15-15v15m7.5-15v15m7.5-15v15m7.5-15v15m15-15v15m7.5-15v15m7.5-15v15m7.5-15v15m15-15v15m7.5-15v15" class="D B C"/><use xlink:href="#B" class="E"/><path paint-order="fill stroke markers" d="M10 30h300m0 0h35" class="B C D"/><use xlink:href="#C" paint-order="fill stroke markers" class="B C"/><path paint-order="fill stroke markers" d="M17.5 22.5v15m7.5-15v15m7.5-15v15m7.5-15v15m15-15v15m7.5-15v15m7.5-15v15m7.5-15v15m15-15v15m7.5-15v15m7.5-15v15m7.5-15v15m15-15v15m7.5-15v15m7.5-15v15" class="D B C"/><use xlink:href="#B" class="E"/><path paint-order="fill stroke markers" d="M10 30h300m0 0h35" class="B C D"/><use xlink:href="#C" paint-order="fill stroke markers" class="B C"/><path paint-order="fill stroke markers" d="M17.5 22.5v15m7.5-15v15m7.5-15v15m7.5-15v15m15-15v15m7.5-15v15m7.5-15v15m7.5-15v15m15-15v15m7.5-15v15m7.5-15v15m7.5-15v15m15-15v15m7.5-15v15m7.5-15v15m7.5-15v15" class="D B C"/><use xlink:href="#B" class="E"/><path paint-order="fill stroke markers" d="M10 30h300m0 0h35" class="B C D"/><use xlink:href="#C" paint-order="fill stroke markers" class="B C"/><path paint-order="fill stroke markers" d="M17.5 22.5v15m7.5-15v15m7.5-15v15m7.5-15v15m15-15v15m7.5-15v15m7.5-15v15m7.5-15v15m15-15v15m7.5-15v15m7.5-15v15m7.5-15v15m15-15v15m7.5-15v15m7.5-15v15m7.5-15v15m15-15v15" class="D B C"/><use xlink:href="#B" class="E"/><path paint-order="fill stroke markers" d="M10 30h300m0 0h35" class="B C D"/><use xlink:href="#C" paint-order="fill stroke markers" class="B C"/><path paint-order="fill stroke markers" d="M17.5 22.5v15m7.5-15v15m7.5-15v15m7.5-15v15m15-15v15m7.5-15v15m7.5-15v15m7.5-15v15m15-15v15m7.5-15v15m7.5-15v15m7.5-15v15m15-15v15m7.5-15v15m7.5-15v15m7.5-15v15m15-15v15m7.5-15v15" class="D B C"/><use xlink:href="#B" class="E"/><path paint-order="fill stroke markers" d="M10 30h300m0 0h35" class="B C D"/><use xlink:href="#C" paint-order="fill stroke markers" class="B C"/><path paint-order="fill stroke markers" d="M17.5 22.5v15m7.5-15v15m7.5-15v15m7.5-15v15m15-15v15m7.5-15v15m7.5-15v15m7.5-15v15m15-15v15m7.5-15v15m7.5-15v15m7.5-15v15m15-15v15m7.5-15v15m7.5-15v15m7.5-15v15m15-15v15m7.5-15v15m7.5-15v15" class="D B C"/><use xlink:href="#B" class="E"/><path paint-order="fill stroke markers" d="M10 30h300m0 0h35" class="B C D"/><use xlink:href="#C" paint-order="fill stroke markers" class="B C"/><path paint-order="fill stroke markers" d="M17.5 22.5v15m7.5-15v15m7.5-15v15m7.5-15v15m15-15v15m7.5-15v15m7.5-15v15m7.5-15v15m15-15v15m7.5-15v15m7.5-15v15m7.5-15v15m15-15v15m7.5-15v15m7.5-15v15m7.5-15v15m15-15v15m7.5-15v15m7.5-15v15m7.5-15v15" class="D B C"/><use xlink:href="#B" class="E"/><path paint-order="fill stroke markers" d="M10 30h300m0 0h35" class="B C D"/><use xlink:href="#C" paint-order="fill stroke markers" class="B C"/><path paint-order="fill stroke markers" d="M17.5 22.5v15m7.5-15v15m7.5-15v15m7.5-15v15m15-15v15m7.5-15v15m7.5-15v15m7.5-15v15m15-15v15m7.5-15v15m7.5-15v15m7.5-15v15m15-15v15m7.5-15v15m7.5-15v15m7.5-15v15m15-15v15m7.5-15v15m7.5-15v15m7.5-15v15m15-15v15" class="D B C"/><use xlink:href="#B" class="E"/><path paint-order="fill stroke markers" d="M10 30h300m0 0h35" class="B C D"/><use xlink:href="#C" paint-order="fill stroke markers" class="B C"/><path paint-order="fill stroke markers" d="M17.5 22.5v15m7.5-15v15m7.5-15v15m7.5-15v15m15-15v15m7.5-15v15m7.5-15v15m7.5-15v15m15-15v15m7.5-15v15m7.5-15v15m7.5-15v15m15-15v15m7.5-15v15m7.5-15v15m7.5-15v15m15-15v15m7.5-15v15m7.5-15v15m7.5-15v15m15-15v15m7.5-15v15" class="D B C"/><use xlink:href="#B" class="E"/><path paint-order="fill stroke markers" d="M10 30h300m0 0h35" class="B C D"/><use xlink:href="#C" paint-order="fill stroke markers" class="B C"/><path paint-order="fill stroke markers" d="M17.5 22.5v15m7.5-15v15m7.5-15v15m7.5-15v15m15-15v15m7.5-15v15m7.5-15v15m7.5-15v15m15-15v15m7.5-15v15m7.5-15v15m7.5-15v15m15-15v15m7.5-15v15m7.5-15v15m7.5-15v15m15-15v15m7.5-15v15m7.5-15v15m7.5-15v15m15-15v15m7.5-15v15m7.5-15v15" class="D B C"/><use xlink:href="#B" class="E"/><path paint-order="fill stroke markers" d="M10 30h300m0 0h35" class="B C D"/><use xlink:href="#C" paint-order="fill stroke markers" class="B C"/><path paint-order="fill stroke markers" d="M17.5 22.5v15m7.5-15v15m7.5-15v15m7.5-15v15m15-15v15m7.5-15v15m7.5-15v15m7.5-15v15m15-15v15m7.5-15v15m7.5-15v15m7.5-15v15m15-15v15m7.5-15v15m7.5-15v15m7.5-15v15m15-15v15m7.5-15v15m7.5-15v15m7.5-15v15m15-15v15m7.5-15v15m7.5-15v15m7.5-15v15" class="D B C"/><use xlink:href="#B" class="E"/><path paint-order="fill stroke markers" d="M10 30h300m0 0h35" class="B C D"/><use xlink:href="#C" paint-order="fill stroke markers" class="B C"/><path paint-order="fill stroke markers" d="M17.5 22.5v15m7.5-15v15m7.5-15v15m7.5-15v15m15-15v15m7.5-15v15m7.5-15v15m7.5-15v15m15-15v15m7.5-15v15m7.5-15v15m7.5-15v15m15-15v15m7.5-15v15m7.5-15v15m7.5-15v15m15-15v15m7.5-15v15m7.5-15v15m7.5-15v15m15-15v15m7.5-15v15m7.5-15v15m7.5-15v15m15-15v15" class="D B C"/><use xlink:href="#B" class="E"/><path paint-order="fill stroke markers" d="M10 30h300m0 0h35" class="B C D"/><use xlink:href="#C" paint-order="fill stroke markers" class="B C"/><path paint-order="fill stroke markers" d="M17.5 22.5v15m7.5-15v15m7.5-15v15m7.5-15v15m15-15v15m7.5-15v15m7.5-15v15m7.5-15v15m15-15v15m7.5-15v15m7.5-15v15m7.5-15v15m15-15v15m7.5-15v15m7.5-15v15m7.5-15v15m15-15v15m7.5-15v15m7.5-15v15m7.5-15v15m15-15v15m7.5-15v15m7.5-15v15m7.5-15v15m15-15v15m7.5-15v15" class="D B C"/><use xlink:href="#B" class="E"/><path paint-order="fill stroke markers" d="M10 30h300m0 0h35" class="B C D"/><use xlink:href="#C" paint-order="fill stroke markers" class="B C"/><path paint-order="fill stroke markers" d="M17.5 22.5v15m7.5-15v15m7.5-15v15m7.5-15v15m15-15v15m7.5-15v15m7.5-15v15m7.5-15v15m15-15v15m7.5-15v15m7.5-15v15m7.5-15v15m15-15v15m7.5-15v15m7.5-15v15m7.5-15v15m15-15v15m7.5-15v15m7.5-15v15m7.5-15v15m15-15v15m7.5-15v15m7.5-15v15m7.5-15v15m15-15v15m7.5-15v15m7.5-15v15" class="D B C"/><use xlink:href="#B" class="E"/><path paint-order="fill stroke markers" d="M10 30h300m0 0h35" class="B C D"/><use xlink:href="#C" paint-order="fill stroke markers" class="B C"/><path paint-order="fill stroke markers" d="M17.5 22.5v15m7.5-15v15m7.5-15v15m7.5-15v15m15-15v15m7.5-15v15m7.5-15v15m7.5-15v15m15-15v15m7.5-15v15m7.5-15v15m7.5-15v15m15-15v15m7.5-15v15m7.5-15v15m7.5-15v15m15-15v15m7.5-15v15m7.5-15v15m7.5-15v15m15-15v15m7.5-15v15m7.5-15v15m7.5-15v15m15-15v15m7.5-15v15m7.5-15v15m7.5-15v15" class="D B C"/><use xlink:href="#B" class="E"/><path paint-order="fill stroke markers" d="M10 30h300m0 0h35" class="B C D"/><use xlink:href="#C" paint-order="fill stroke markers" class="B C"/><path paint-order="fill stroke markers" d="M17.5 22.5v15m7.5-15v15m7.5-15v15m7.5-15v15m15-15v15m7.5-15v15m7.5-15v15m7.5-15v15m15-15v15m7.5-15v15m7.5-15v15m7.5-15v15m15-15v15m7.5-15v15m7.5-15v15m7.5-15v15m15-15v15m7.5-15v15m7.5-15v15m7.5-15v15m15-15v15m7.5-15v15m7.5-15v15m7.5-15v15m15-15v15m7.5-15v15m7.5-15v15m7.5-15v15m15-15v15" class="D B C"/><use xlink:href="#B" class="E"/><path paint-order="fill stroke markers" d="M10 30h300m0 0h35" class="B C D"/><use xlink:href="#C" paint-order="fill stroke markers" class="B C"/><path paint-order="fill stroke markers" d="M17.5 22.5v15m7.5-15v15m7.5-15v15m7.5-15v15m15-15v15m7.5-15v15m7.5-15v15m7.5-15v15m15-15v15m7.5-15v15m7.5-15v15m7.5-15v15m15-15v15m7.5-15v15m7.5-15v15m7.5-15v15m15-15v15m7.5-15v15m7.5-15v15m7.5-15v15m15-15v15m7.5-15v15m7.5-15v15m7.5-15v15m15-15v15m7.5-15v15m7.5-15v15m7.5-15v15m15-15v15m7.5-15v15" class="D B C"/><use xlink:href="#B" class="E"/><path paint-order="fill stroke markers" d="M10 30h300m0 0h35" class="B C D"/><use xlink:href="#C" paint-order="fill stroke markers" class="B C"/><path paint-order="fill stroke markers" d="M17.5 22.5v15m7.5-15v15m7.5-15v15m7.5-15v15m15-15v15m7.5-15v15m7.5-15v15m7.5-15v15m15-15v15m7.5-15v15m7.5-15v15m7.5-15v15m15-15v15m7.5-15v15m7.5-15v15m7.5-15v15m15-15v15m7.5-15v15m7.5-15v15m7.5-15v15m15-15v15m7.5-15v15m7.5-15v15m7.5-15v15m15-15v15m7.5-15v15m7.5-15v15m7.5-15v15m15-15v15m7.5-15v15m7.5-15v15" class="D B C"/><use xlink:href="#B" class="E"/><path paint-order="fill stroke markers" d="M10 30h300m0 0h35" class="B C D"/><use xlink:href="#C" paint-order="fill stroke markers" class="B C"/><path paint-order="fill stroke markers" d="M17.5 22.5v15m7.5-15v15m7.5-15v15m7.5-15v15m15-15v15m7.5-15v15m7.5-15v15m7.5-15v15m15-15v15m7.5-15v15m7.5-15v15m7.5-15v15m15-15v15m7.5-15v15m7.5-15v15m7.5-15v15m15-15v15m7.5-15v15m7.5-15v15m7.5-15v15m15-15v15m7.5-15v15m7.5-15v15m7.5-15v15m15-15v15m7.5-15v15m7.5-15v15m7.5-15v15m15-15v15m7.5-15v15m7.5-15v15m7.5-15v15" class="D B C"/><use xlink:href="#B" class="E"/><path paint-order="fill stroke markers" d="M10 30h300m0 0h35" class="B C D"/><use xlink:href="#C" paint-order="fill stroke markers" class="B C"/><path paint-order="fill stroke markers" d="M17.5 22.5v15m7.5-15v15m7.5-15v15m7.5-15v15m15-15v15m7.5-15v15m7.5-15v15m7.5-15v15m15-15v15m7.5-15v15m7.5-15v15m7.5-15v15m15-15v15m7.5-15v15m7.5-15v15m7.5-15v15m15-15v15m7.5-15v15m7.5-15v15m7.5-15v15m15-15v15m7.5-15v15m7.5-15v15m7.5-15v15m15-15v15m7.5-15v15m7.5-15v15m7.5-15v15m15-15v15m7.5-15v15m7.5-15v15m7.5-15v15m-255-21v27" class="D B C"/><use xlink:href="#B" class="E"/><path paint-order="fill stroke markers" d="M10 30h300m0 0h35" class="B C D"/><use xlink:href="#C" paint-order="fill stroke markers" class="B C"/><path paint-order="fill stroke markers" d="M17.5 22.5v15m7.5-15v15m7.5-15v15m7.5-15v15m15-15v15m7.5-15v15m7.5-15v15m7.5-15v15m15-15v15m7.5-15v15m7.5-15v15m7.5-15v15m15-15v15m7.5-15v15m7.5-15v15m7.5-15v15m15-15v15m7.5-15v15m7.5-15v15m7.5-15v15m15-15v15m7.5-15v15m7.5-15v15m7.5-15v15m15-15v15m7.5-15v15m7.5-15v15m7.5-15v15m15-15v15m7.5-15v15m7.5-15v15m7.5-15v15m-255-21v27m75-27v27" class="D B C"/><use xlink:href="#B" class="E"/><path paint-order="fill stroke markers" d="M10 30h300m0 0h35" class="B C D"/><use xlink:href="#C" paint-order="fill stroke markers" class="B C"/><path paint-order="fill stroke markers" d="M17.5 22.5v15m7.5-15v15m7.5-15v15m7.5-15v15m15-15v15m7.5-15v15m7.5-15v15m7.5-15v15m15-15v15m7.5-15v15m7.5-15v15m7.5-15v15m15-15v15m7.5-15v15m7.5-15v15m7.5-15v15m15-15v15m7.5-15v15m7.5-15v15m7.5-15v15m15-15v15m7.5-15v15m7.5-15v15m7.5-15v15m15-15v15m7.5-15v15m7.5-15v15m7.5-15v15m15-15v15m7.5-15v15m7.5-15v15m7.5-15v15m-255-21v27m75-27v27m75-27v27" class="D B C"/><use xlink:href="#B" class="E"/><path paint-order="fill stroke markers" d="M10 30h300m0 0h35" class="B C D"/><use xlink:href="#C" paint-order="fill stroke markers" class="B C"/><path paint-order="fill stroke markers" d="M17.5 22.5v15m7.5-15v15m7.5-15v15m7.5-15v15m15-15v15m7.5-15v15m7.5-15v15m7.5-15v15m15-15v15m7.5-15v15m7.5-15v15m7.5-15v15m15-15v15m7.5-15v15m7.5-15v15m7.5-15v15m15-15v15m7.5-15v15m7.5-15v15m7.5-15v15m15-15v15m7.5-15v15m7.5-15v15m7.5-15v15m15-15v15m7.5-15v15m7.5-15v15m7.5-15v15m15-15v15m7.5-15v15m7.5-15v15m7.5-15v15m-255-21v27m75-27v27m75-27v27m75-27v27" class="D B C"/><use xlink:href="#B" class="E"/><path paint-order="fill stroke markers" d="M10 30h300m0 0h35" class="B C D"/><use xlink:href="#C" paint-order="fill stroke markers" class="B C"/><g class="D B C"><path paint-order="fill stroke markers" d="M17.5 22.5v15m7.5-15v15m7.5-15v15m7.5-15v15m15-15v15m7.5-15v15m7.5-15v15m7.5-15v15m15-15v15m7.5-15v15m7.5-15v15m7.5-15v15m15-15v15m7.5-15v15m7.5-15v15m7.5-15v15m15-15v15m7.5-15v15m7.5-15v15m7.5-15v15m15-15v15m7.5-15v15m7.5-15v15m7.5-15v15m15-15v15m7.5-15v15m7.5-15v15m7.5-15v15m15-15v15m7.5-15v15m7.5-15v15m7.5-15v15m-255-21v27m75-27v27m75-27v27m75-27v27"/><path paint-order="fill stroke markers" d="M10 14v32" class="L"/></g><use xlink:href="#B" class="E"/><path paint-order="fill stroke markers" d="M10 30h300m0 0h35" class="B C D"/><use xlink:href="#C" paint-order="fill stroke markers" class="B C"/><g class="D B C"><path paint-order="fill stroke markers" d="M17.5 22.5v15m7.5-15v15m7.5-15v15m7.5-15v15m15-15v15m7.5-15v15m7.5-15v15m7.5-15v15m15-15v15m7.5-15v15m7.5-15v15m7.5-15v15m15-15v15m7.5-15v15m7.5-15v15m7.5-15v15m15-15v15m7.5-15v15m7.5-15v15m7.5-15v15m15-15v15m7.5-15v15m7.5-15v15m7.5-15v15m15-15v15m7.5-15v15m7.5-15v15m7.5-15v15m15-15v15m7.5-15v15m7.5-15v15m7.5-15v15m-255-21v27m75-27v27m75-27v27m75-27v27"/><path paint-order="fill stroke markers" d="M10 14v32m75-32v32" class="L"/></g><use xlink:href="#B" class="E"/><path paint-order="fill stroke markers" d="M10 30h300m0 0h35" class="B C D"/><use xlink:href="#C" paint-order="fill stroke markers" class="B C"/><g class="D B C"><path paint-order="fill stroke markers" d="M17.5 22.5v15m7.5-15v15m7.5-15v15m7.5-15v15m15-15v15m7.5-15v15m7.5-15v15m7.5-15v15m15-15v15m7.5-15v15m7.5-15v15m7.5-15v15m15-15v15m7.5-15v15m7.5-15v15m7.5-15v15m15-15v15m7.5-15v15m7.5-15v15m7.5-15v15m15-15v15m7.5-15v15m7.5-15v15m7.5-15v15m15-15v15m7.5-15v15m7.5-15v15m7.5-15v15m15-15v15m7.5-15v15m7.5-15v15m7.5-15v15m-255-21v27m75-27v27m75-27v27m75-27v27"/><path paint-order="fill stroke markers" d="M10 14v32m75-32v32m75-32v32" class="L"/></g><use xlink:href="#B" class="E"/><path paint-order="fill stroke markers" d="M10 30h300m0 0h35" class="B C D"/><use xlink:href="#C" paint-order="fill stroke markers" class="B C"/><g class="D B C"><path paint-order="fill stroke markers" d="M17.5 22.5v15m7.5-15v15m7.5-15v15m7.5-15v15m15-15v15m7.5-15v15m7.5-15v15m7.5-15v15m15-15v15m7.5-15v15m7.5-15v15m7.5-15v15m15-15v15m7.5-15v15m7.5-15v15m7.5-15v15m15-15v15m7.5-15v15m7.5-15v15m7.5-15v15m15-15v15m7.5-15v15m7.5-15v15m7.5-15v15m15-15v15m7.5-15v15m7.5-15v15m7.5-15v15m15-15v15m7.5-15v15m7.5-15v15m7.5-15v15m-255-21v27m75-27v27m75-27v27m75-27v27"/><path paint-order="fill stroke markers" d="M10 14v32m75-32v32m75-32v32m75-32v32" class="L"/></g><use xlink:href="#B" class="E"/><path paint-order="fill stroke markers" d="M10 30h300m0 0h35" class="B C D"/><use xlink:href="#C" paint-order="fill stroke markers" class="B C"/><g class="D B C"><path paint-order="fill stroke markers" d="M17.5 22.5v15m7.5-15v15m7.5-15v15m7.5-15v15m15-15v15m7.5-15v15m7.5-15v15m7.5-15v15m15-15v15m7.5-15v15m7.5-15v15m7.5-15v15m15-15v15m7.5-15v15m7.5-15v15m7.5-15v15m15-15v15m7.5-15v15m7.5-15v15m7.5-15v15m15-15v15m7.5-15v15m7.5-15v15m7.5-15v15m15-15v15m7.5-15v15m7.5-15v15m7.5-15v15m15-15v15m7.5-15v15m7.5-15v15m7.5-15v15m-255-21v27m75-27v27m75-27v27m75-27v27"/><path paint-order="fill stroke markers" d="M10 14v32m75-32v32m75-32v32m75-32v32m75-32v32" class="L"/></g><use xlink:href="#B" class="E"/><path paint-order="fill stroke markers" d="M10 30h300m0 0h35" class="B C D"/><use xlink:href="#C" paint-order="fill stroke markers" class="B C"/><g class="D B C"><path paint-order="fill stroke markers" d="M17.5 22.5v15m7.5-15v15m7.5-15v15m7.5-15v15m15-15v15m7.5-15v15m7.5-15v15m7.5-15v15m15-15v15m7.5-15v15m7.5-15v15m7.5-15v15m15-15v15m7.5-15v15m7.5-15v15m7.5-15v15m15-15v15m7.5-15v15m7.5-15v15m7.5-15v15m15-15v15m7.5-15v15m7.5-15v15m7.5-15v15m15-15v15m7.5-15v15m7.5-15v15m7.5-15v15m15-15v15m7.5-15v15m7.5-15v15m7.5-15v15m-255-21v27m75-27v27m75-27v27m75-27v27"/><path paint-order="fill stroke markers" d="M10 14v32m75-32v32m75-32v32m75-32v32m75-32v32" class="L"/><path paint-order="fill stroke markers" d="M10 17v26" class="F"/></g><use xlink:href="#B" class="E"/><path paint-order="fill stroke markers" d="M10 30h300m0 0h35" class="B C D"/><use xlink:href="#C" paint-order="fill stroke markers" class="B C"/><g class="D B C"><path paint-order="fill stroke markers" d="M17.5 22.5v15m7.5-15v15m7.5-15v15m7.5-15v15m15-15v15m7.5-15v15m7.5-15v15m7.5-15v15m15-15v15m7.5-15v15m7.5-15v15m7.5-15v15m15-15v15m7.5-15v15m7.5-15v15m7.5-15v15m15-15v15m7.5-15v15m7.5-15v15m7.5-15v15m15-15v15m7.5-15v15m7.5-15v15m7.5-15v15m15-15v15m7.5-15v15m7.5-15v15m7.5-15v15m15-15v15m7.5-15v15m7.5-15v15m7.5-15v15m-255-21v27m75-27v27m75-27v27m75-27v27"/><path paint-order="fill stroke markers" d="M10 14v32m75-32v32m75-32v32m75-32v32m75-32v32" class="L"/><path paint-order="fill stroke markers" d="M10 17v26" class="F"/></g><text y="61" x="4.438" class="G H I J K">0</text><use xlink:href="#B" class="E"/><path paint-order="fill stroke markers" d="M10 30h300m0 0h35" class="B C D"/><use xlink:href="#C" paint-order="fill stroke markers" class="B C"/><g class="D B C"><path paint-order="fill stroke markers" d="M17.5 22.5v15m7.5-15v15m7.5-15v15m7.5-15v15m15-15v15m7.5-15v15m7.5-15v15m7.5-15v15m15-15v15m7.5-15v15m7.5-15v15m7.5-15v15m15-15v15m7.5-15v15m7.5-15v15m7.5-15v15m15-15v15m7.5-15v15m7.5-15v15m7.5-15v15m15-15v15m7.5-15v15m7.5-15v15m7.5-15v15m15-15v15m7.5-15v15m7.5-15v15m7.5-15v15m15-15v15m7.5-15v15m7.5-15v15m7.5-15v15m-255-21v27m75-27v27m75-27v27m75-27v27"/><path paint-order="fill stroke markers" d="M10 14v32m75-32v32m75-32v32m75-32v32m75-32v32" class="L"/><path paint-order="fill stroke markers" d="M10 17v26" class="F"/></g><text y="61" x="4.438" class="G H I J K">0</text><path paint-order="fill stroke markers" d="M85 17v26" class="B C D F"/><use xlink:href="#B" class="E"/><path paint-order="fill stroke markers" d="M10 30h300m0 0h35" class="B C D"/><use xlink:href="#C" paint-order="fill stroke markers" class="B C"/><g class="D B C"><path paint-order="fill stroke markers" d="M17.5 22.5v15m7.5-15v15m7.5-15v15m7.5-15v15m15-15v15m7.5-15v15m7.5-15v15m7.5-15v15m15-15v15m7.5-15v15m7.5-15v15m7.5-15v15m15-15v15m7.5-15v15m7.5-15v15m7.5-15v15m15-15v15m7.5-15v15m7.5-15v15m7.5-15v15m15-15v15m7.5-15v15m7.5-15v15m7.5-15v15m15-15v15m7.5-15v15m7.5-15v15m7.5-15v15m15-15v15m7.5-15v15m7.5-15v15m7.5-15v15m-255-21v27m75-27v27m75-27v27m75-27v27"/><path paint-order="fill stroke markers" d="M10 14v32m75-32v32m75-32v32m75-32v32m75-32v32" class="L"/><path paint-order="fill stroke markers" d="M10 17v26" class="F"/></g><text y="61" x="4.438" class="G H I J K">0</text><path paint-order="fill stroke markers" d="M85 17v26" class="B C D F"/><text y="61" x="73.877" class="G H I J K">10</text><use xlink:href="#B" class="E"/><path paint-order="fill stroke markers" d="M10 30h300m0 0h35" class="B C D"/><use xlink:href="#C" paint-order="fill stroke markers" class="B C"/><g class="D B C"><path paint-order="fill stroke markers" d="M17.5 22.5v15m7.5-15v15m7.5-15v15m7.5-15v15m15-15v15m7.5-15v15m7.5-15v15m7.5-15v15m15-15v15m7.5-15v15m7.5-15v15m7.5-15v15m15-15v15m7.5-15v15m7.5-15v15m7.5-15v15m15-15v15m7.5-15v15m7.5-15v15m7.5-15v15m15-15v15m7.5-15v15m7.5-15v15m7.5-15v15m15-15v15m7.5-15v15m7.5-15v15m7.5-15v15m15-15v15m7.5-15v15m7.5-15v15m7.5-15v15m-255-21v27m75-27v27m75-27v27m75-27v27"/><path paint-order="fill stroke markers" d="M10 14v32m75-32v32m75-32v32m75-32v32m75-32v32" class="L"/><path paint-order="fill stroke markers" d="M10 17v26" class="F"/></g><text y="61" x="4.438" class="G H I J K">0</text><path paint-order="fill stroke markers" d="M85 17v26" class="B C D F"/><text y="61" x="73.877" class="G H I J K">10</text><path paint-order="fill stroke markers" d="M160 17v26" class="B C D F"/><use xlink:href="#B" class="E"/><path paint-order="fill stroke markers" d="M10 30h300m0 0h35" class="B C D"/><use xlink:href="#C" paint-order="fill stroke markers" class="B C"/><g class="D B C"><path paint-order="fill stroke markers" d="M17.5 22.5v15m7.5-15v15m7.5-15v15m7.5-15v15m15-15v15m7.5-15v15m7.5-15v15m7.5-15v15m15-15v15m7.5-15v15m7.5-15v15m7.5-15v15m15-15v15m7.5-15v15m7.5-15v15m7.5-15v15m15-15v15m7.5-15v15m7.5-15v15m7.5-15v15m15-15v15m7.5-15v15m7.5-15v15m7.5-15v15m15-15v15m7.5-15v15m7.5-15v15m7.5-15v15m15-15v15m7.5-15v15m7.5-15v15m7.5-15v15m-255-21v27m75-27v27m75-27v27m75-27v27"/><path paint-order="fill stroke markers" d="M10 14v32m75-32v32m75-32v32m75-32v32m75-32v32" class="L"/><path paint-order="fill stroke markers" d="M10 17v26" class="F"/></g><text y="61" x="4.438" class="G H I J K">0</text><path paint-order="fill stroke markers" d="M85 17v26" class="B C D F"/><text y="61" x="73.877" class="G H I J K">10</text><path paint-order="fill stroke markers" d="M160 17v26" class="B C D F"/><text y="61" x="148.877" class="G H I J K">20</text><use xlink:href="#B" class="E"/><path paint-order="fill stroke markers" d="M10 30h300m0 0h35" class="B C D"/><use xlink:href="#C" paint-order="fill stroke markers" class="B C"/><g class="D B C"><path paint-order="fill stroke markers" d="M17.5 22.5v15m7.5-15v15m7.5-15v15m7.5-15v15m15-15v15m7.5-15v15m7.5-15v15m7.5-15v15m15-15v15m7.5-15v15m7.5-15v15m7.5-15v15m15-15v15m7.5-15v15m7.5-15v15m7.5-15v15m15-15v15m7.5-15v15m7.5-15v15m7.5-15v15m15-15v15m7.5-15v15m7.5-15v15m7.5-15v15m15-15v15m7.5-15v15m7.5-15v15m7.5-15v15m15-15v15m7.5-15v15m7.5-15v15m7.5-15v15m-255-21v27m75-27v27m75-27v27m75-27v27"/><path paint-order="fill stroke markers" d="M10 14v32m75-32v32m75-32v32m75-32v32m75-32v32" class="L"/><path paint-order="fill stroke markers" d="M10 17v26" class="F"/></g><text y="61" x="4.438" class="G H I J K">0</text><path paint-order="fill stroke markers" d="M85 17v26" class="B C D F"/><text y="61" x="73.877" class="G H I J K">10</text><path paint-order="fill stroke markers" d="M160 17v26" class="B C D F"/><text y="61" x="148.877" class="G H I J K">20</text><path paint-order="fill stroke markers" d="M235 17v26" class="B C D F"/><use xlink:href="#B" class="E"/><path paint-order="fill stroke markers" d="M10 30h300m0 0h35" class="B C D"/><use xlink:href="#C" paint-order="fill stroke markers" class="B C"/><g class="D B C"><path paint-order="fill stroke markers" d="M17.5 22.5v15m7.5-15v15m7.5-15v15m7.5-15v15m15-15v15m7.5-15v15m7.5-15v15m7.5-15v15m15-15v15m7.5-15v15m7.5-15v15m7.5-15v15m15-15v15m7.5-15v15m7.5-15v15m7.5-15v15m15-15v15m7.5-15v15m7.5-15v15m7.5-15v15m15-15v15m7.5-15v15m7.5-15v15m7.5-15v15m15-15v15m7.5-15v15m7.5-15v15m7.5-15v15m15-15v15m7.5-15v15m7.5-15v15m7.5-15v15m-255-21v27m75-27v27m75-27v27m75-27v27"/><path paint-order="fill stroke markers" d="M10 14v32m75-32v32m75-32v32m75-32v32m75-32v32" class="L"/><path paint-order="fill stroke markers" d="M10 17v26" class="F"/></g><text y="61" x="4.438" class="G H I J K">0</text><path paint-order="fill stroke markers" d="M85 17v26" class="B C D F"/><text y="61" x="73.877" class="G H I J K">10</text><path paint-order="fill stroke markers" d="M160 17v26" class="B C D F"/><text y="61" x="148.877" class="G H I J K">20</text><path paint-order="fill stroke markers" d="M235 17v26" class="B C D F"/><text y="61" x="223.877" class="G H I J K">30</text><use xlink:href="#B" class="E"/><path paint-order="fill stroke markers" d="M10 30h300m0 0h35" class="B C D"/><use xlink:href="#C" paint-order="fill stroke markers" class="B C"/><g class="D B C"><path paint-order="fill stroke markers" d="M17.5 22.5v15m7.5-15v15m7.5-15v15m7.5-15v15m15-15v15m7.5-15v15m7.5-15v15m7.5-15v15m15-15v15m7.5-15v15m7.5-15v15m7.5-15v15m15-15v15m7.5-15v15m7.5-15v15m7.5-15v15m15-15v15m7.5-15v15m7.5-15v15m7.5-15v15m15-15v15m7.5-15v15m7.5-15v15m7.5-15v15m15-15v15m7.5-15v15m7.5-15v15m7.5-15v15m15-15v15m7.5-15v15m7.5-15v15m7.5-15v15m-255-21v27m75-27v27m75-27v27m75-27v27"/><path paint-order="fill stroke markers" d="M10 14v32m75-32v32m75-32v32m75-32v32m75-32v32" class="L"/><path paint-order="fill stroke markers" d="M10 17v26" class="F"/></g><text y="61" x="4.438" class="G H I J K">0</text><path paint-order="fill stroke markers" d="M85 17v26" class="B C D F"/><text y="61" x="73.877" class="G H I J K">10</text><path paint-order="fill stroke markers" d="M160 17v26" class="B C D F"/><text y="61" x="148.877" class="G H I J K">20</text><path paint-order="fill stroke markers" d="M235 17v26" class="B C D F"/><text y="61" x="223.877" class="G H I J K">30</text><path paint-order="fill stroke markers" d="M310 17v26" class="B C D F"/><use xlink:href="#B" class="E"/><path paint-order="fill stroke markers" d="M10 30h300m0 0h35" class="B C D"/><use xlink:href="#C" paint-order="fill stroke markers" class="B C"/><g class="D B C"><path paint-order="fill stroke markers" d="M17.5 22.5v15m7.5-15v15m7.5-15v15m7.5-15v15m15-15v15m7.5-15v15m7.5-15v15m7.5-15v15m15-15v15m7.5-15v15m7.5-15v15m7.5-15v15m15-15v15m7.5-15v15m7.5-15v15m7.5-15v15m15-15v15m7.5-15v15m7.5-15v15m7.5-15v15m15-15v15m7.5-15v15m7.5-15v15m7.5-15v15m15-15v15m7.5-15v15m7.5-15v15m7.5-15v15m15-15v15m7.5-15v15m7.5-15v15m7.5-15v15m-255-21v27m75-27v27m75-27v27m75-27v27"/><path paint-order="fill stroke markers" d="M10 14v32m75-32v32m75-32v32m75-32v32m75-32v32" class="L"/><path paint-order="fill stroke markers" d="M10 17v26" class="F"/></g><text y="61" x="4.438" class="G H I J K">0</text><path paint-order="fill stroke markers" d="M85 17v26" class="B C D F"/><text y="61" x="73.877" class="G H I J K">10</text><path paint-order="fill stroke markers" d="M160 17v26" class="B C D F"/><text y="61" x="148.877" class="G H I J K">20</text><path paint-order="fill stroke markers" d="M235 17v26" class="B C D F"/><text y="61" x="223.877" class="G H I J K">30</text><path paint-order="fill stroke markers" d="M310 17v26" class="B C D F"/><text y="61" x="298.877" class="G H I J K">40</text><use xlink:href="#B" class="E"/><path paint-order="fill stroke markers" d="M10 30h300m0 0h35" class="B C D"/><use xlink:href="#C" paint-order="fill stroke markers" class="B C"/><g class="D B C"><path paint-order="fill stroke markers" d="M17.5 22.5v15m7.5-15v15m7.5-15v15m7.5-15v15m15-15v15m7.5-15v15m7.5-15v15m7.5-15v15m15-15v15m7.5-15v15m7.5-15v15m7.5-15v15m15-15v15m7.5-15v15m7.5-15v15m7.5-15v15m15-15v15m7.5-15v15m7.5-15v15m7.5-15v15m15-15v15m7.5-15v15m7.5-15v15m7.5-15v15m15-15v15m7.5-15v15m7.5-15v15m7.5-15v15m15-15v15m7.5-15v15m7.5-15v15m7.5-15v15m-255-21v27m75-27v27m75-27v27m75-27v27"/><path paint-order="fill stroke markers" d="M10 14v32m75-32v32m75-32v32m75-32v32m75-32v32" class="L"/><path paint-order="fill stroke markers" d="M10 17v26" class="F"/></g><text y="61" x="4.438" class="G H I J K">0</text><path paint-order="fill stroke markers" d="M85 17v26" class="B C D F"/><text y="61" x="73.877" class="G H I J K">10</text><path paint-order="fill stroke markers" d="M160 17v26" class="B C D F"/><text y="61" x="148.877" class="G H I J K">20</text><path paint-order="fill stroke markers" d="M235 17v26" class="B C D F"/><text y="61" x="223.877" class="G H I J K">30</text><path paint-order="fill stroke markers" d="M310 17v26" class="B C D F"/><text y="61" x="298.877" class="G H I J K">40</text><defs ><path id="B" d="M0 0h359v74H0z"/><path id="C" d="M327 24l18 6-18 6z"/></defs></svg>