<svg xmlns="http://www.w3.org/2000/svg" width="259.359" height="72.321" viewBox="0 0 68.622 19.135" xmlns:v="https://vecta.io/nano"><style><![CDATA[.B{clip-rule:evenodd}.C{fill:#212529}.D{fill-rule:evenodd}.E{stroke-width:.801}]]></style><defs><clipPath id="A"><path d="M25.6 26.56h225.92v74.4H25.6z" class="B"/></clipPath><clipPath id="B"><path d="M247.52 26.56h21.76v20.48h-21.76z" class="B"/></clipPath><clipPath id="C"><path d="M-260.53-37.11v1122.56h793.44V-37.11z" class="B"/></clipPath><clipPath id="D"><path d="M-257.96-55.21v1122.56h793.44V-55.21z" class="B"/></clipPath><clipPath id="E"><path d="M-275.27-52.17v1122.56h793.44V-52.17z" class="B"/></clipPath><clipPath id="F"><path d="M-260.53-71.39v1122.56h793.44V-71.39z" class="B"/></clipPath><clipPath id="G"><path d="M-.55-.18h6.72v13.6H-.55z" class="B"/></clipPath><clipPath id="H"><path d="M270.56 69.6h11.52v4.16h-11.52z" class="B"/></clipPath></defs><path d="M0 .043h59.224v19.092H0z" fill="#fff2cc"/><g transform="matrix(.264583 0 0 .264583 -6.77294 -7.027048)" class="E"><g clip-path="url(#A)"><path d="M26.07 27.02h222.92v71.44H26.07z" fill="none" stroke="#ffcd00"/></g><g clip-path="url(#B)"><path d="M249.79 27.02h16.99v17.62h-16.99z" fill="none" stroke="#000"/></g></g><g clip-path="url(#C)" transform="matrix(.264583 0 0 .264583 62.24362 2.79164)" class="C"><path d="M0 0h-2.24v2.24h-.65V0h-2.24v-.64h2.24v-2.24h.65v2.24H0z"/></g><path d="M63.881 0h4.741v.212h-4.741zm0 4.699h4.741v.212h-4.741z" class="D"/><path d="M68.411.043h.212v4.868h-.212z"/><path d="M65.448 2.625h1.439v.212h-1.439z" class="C"/><path d="M59.182 9.356h4.699v.212h-4.699z"/><path d="M63.67 4.869h.212v4.699h-.212zm-4.487 0h.212v4.699h-.212z" class="D"/><g clip-path="url(#D)" transform="matrix(.264583 0 0 .264583 61.56364 7.5806)" class="C"><path d="M0 0c-.16 0-.16-.16-.32-.16 0 0-.16 0-.16-.16 0 0-.16 0-.16-.16v-.16-.32l.16-.16.16-.16H0h.17c.16 0 .16.16.32.16v.16c.16.16.16.16.16.32 0 0 0 .16-.16.16v.16c-.16.16-.16.16-.32.16L0 0z"/></g><path d="M63.881 9.356h4.741v.212h-4.741z"/><path d="M68.411 4.869h.212v4.699h-.212z"/><g clip-path="url(#E)" transform="matrix(.264583 0 0 .264583 66.14358 6.77626)" class="C"><path d="M0 0c-.16 0-.32-.16-.48-.16 0-.16-.16-.32-.16-.48s.16-.32.16-.48c.16-.16.32-.16.48-.16s.32 0 .48.16.16.32.16.48 0 .32-.16.48C.32-.16.16 0 0 0zm0 4.64c-.16 0-.32 0-.48-.16 0-.16-.16-.32-.16-.48s.16-.32.16-.48c.16 0 .32-.16.48-.16s.32.16.48.16c.16.16.16.32.16.48s0 .32-.16.48-.32.16-.48.16z"/></g><path d="M59.182 14.055h4.699v.212h-4.699z"/><path d="M63.67 9.568h.212v4.699h-.212zm-4.487 0h.212v4.699h-.212z" class="D"/><g clip-path="url(#F)" transform="matrix(.264583 0 0 .264583 62.24362 11.86156)" class="C"><path d="M0 0h-5.13v-.8H0zm0 2.4h-5.13v-.8H0z"/></g><path d="M63.881 14.055h4.741v.212h-4.741z"/><path d="M68.411 9.568h.212v4.699h-.212z"/><g clip-path="url(#G)" transform="matrix(.264583 0 0 .264583 65.59325 10.16558)"><path d="M0 0h5.61v5.13H0zm0 8.17h5.61v4.97H0z" fill="none" stroke="#000" stroke-width=".481" stroke-linejoin="round" stroke-miterlimit="10"/></g><g clip-path="url(#H)" transform="matrix(.264583 0 0 .264583 -6.77294 -7.027048)"><path d="M270.62 71.55H282" fill="none" stroke="#000" stroke-width=".641"/></g></svg>